<?xml version="1.0" encoding="utf-8"?>
<!-- Generator: Adobe Illustrator 22.0.1, SVG Export Plug-In . SVG Version: 6.00 Build 0)  -->
<svg version="1.1" id="Layer_1" xmlns="http://www.w3.org/2000/svg" xmlns:xlink="http://www.w3.org/1999/xlink" x="0px" y="0px"
	 viewBox="0 0 980.1 245.7" style="enable-background:new 0 0 980.1 245.7;" xml:space="preserve">
<style type="text/css">
	.st0{display:none;}
	.st1{display:inline;}
	.st2{fill:none;}
	.st3{display:none;enable-background:new    ;}
	.st4{stroke:#000000;stroke-width:0.25;stroke-miterlimit:10;}
	.st5{stroke:#000000;stroke-width:2;stroke-miterlimit:10;}
</style>
<g class="st0">
	<path class="st1" d="M163.8,210.3h-9v16.6h-5v-16.6h-9.1v-5h9.1v-16.6h5v16.6h9V210.3z"/>
	<path class="st1" d="M178.6,209.3c2.5,0,4.6,0.8,6.2,2.5c1.7,1.7,2.5,3.8,2.5,6.3s-0.8,4.6-2.5,6.3s-3.8,2.5-6.2,2.5
		s-4.5-0.8-6.2-2.5s-2.5-3.8-2.5-6.3s0.8-4.6,2.5-6.3C174.1,210.2,176.1,209.3,178.6,209.3z M183.3,218.1c0-1.4-0.5-2.6-1.4-3.5
		s-2-1.4-3.4-1.4c-1.3,0-2.4,0.5-3.3,1.4c-0.9,0.9-1.4,2.1-1.4,3.5s0.5,2.5,1.4,3.5c0.9,0.9,2,1.4,3.3,1.4s2.5-0.5,3.4-1.4
		C182.8,220.6,183.3,219.4,183.3,218.1z"/>
	<path class="st1" d="M229.7,208.1c0,5.2-1.9,9.6-5.6,13.3c-3.7,3.6-8.2,5.5-13.4,5.5s-9.6-1.8-13.3-5.5s-5.5-8.1-5.6-13.2
		c0-5.3,1.8-9.8,5.4-13.6c3.7-3.8,8.1-5.7,13.4-5.7c5.3,0,9.8,1.9,13.5,5.7S229.8,202.8,229.7,208.1z M224.5,208.1
		c0-3.9-1.3-7.3-4-10c-2.7-2.8-6-4.1-9.7-4.1c-3.8,0-7,1.4-9.6,4.2s-3.9,6.1-3.9,9.9c0,3.7,1.4,6.9,4,9.6c2.6,2.7,5.8,4.1,9.6,4.1
		s7-1.3,9.7-4C223.1,215,224.4,211.8,224.5,208.1z M205.9,208.1c-0.1-1.4,0.3-2.6,1.3-3.6c0.9-1.1,2.1-1.6,3.7-1.5
		c1.4,0,2.5,0.6,3.5,1.6c0.9,1,1.3,2.2,1.2,3.6c-0.1,1.2-0.6,2.3-1.4,3.2c-0.9,0.9-2,1.3-3.3,1.3c-1.4,0-2.6-0.4-3.5-1.3
		S205.9,209.3,205.9,208.1z"/>
	<path class="st1" d="M257.3,188.8l16.1,38.1H268l-13.4-31.6l-13.4,31.6h-5.5l16.1-38.1L257.3,188.8L257.3,188.8z"/>
	<path class="st1" d="M286.6,209.3c2.5,0,4.6,0.8,6.2,2.5c1.7,1.7,2.5,3.8,2.5,6.3s-0.8,4.6-2.5,6.3s-3.8,2.5-6.2,2.5
		c-2.4,0-4.5-0.8-6.2-2.5s-2.5-3.8-2.5-6.3s0.8-4.6,2.5-6.3C282.1,210.2,284.2,209.3,286.6,209.3z M291.3,218.1
		c0-1.4-0.5-2.6-1.4-3.5s-2-1.4-3.4-1.4c-1.3,0-2.4,0.5-3.3,1.4s-1.4,2.1-1.4,3.5s0.5,2.5,1.4,3.5c0.9,0.9,2,1.4,3.3,1.4
		s2.5-0.5,3.4-1.4C290.9,220.6,291.3,219.4,291.3,218.1z"/>
	<path class="st1" d="M325.7,221.9v-33.1h5v38.1h-30.9v-38.1h5.1v33.1H325.7z"/>
	<path class="st1" d="M345.6,215.7l16.7,6.8v5.1l-25.8-10.4l12-10.1l-11.5-10l25.4-9.7v5l-15.8,6.1l9.3,8.1L345.6,215.7z"/>
	<path class="st1" d="M390.4,210.3h-9v16.6h-5v-16.6h-9.1v-5h9.1v-16.6h5v16.6h9V210.3z"/>
	<path class="st1" d="M424.9,226.9h-28.2v-38h28.2v5h-23.1v27.9h23.1V226.9z"/>
	<path class="st1" d="M440.3,210.4c2.5,0,4.6,0.8,6.2,2.4c1.7,1.6,2.5,3.6,2.5,5.9c0,2.3-0.8,4.2-2.5,5.8s-3.8,2.4-6.2,2.4
		c-2.4,0-4.5-0.8-6.2-2.4c-1.7-1.6-2.5-3.5-2.5-5.8s0.8-4.3,2.5-5.9S437.9,210.4,440.3,210.4z M440.5,188.9c2.5,0,4.6,0.8,6.2,2.4
		c1.7,1.6,2.5,3.5,2.5,5.9c0,2.3-0.8,4.2-2.5,5.8s-3.8,2.4-6.2,2.4c-2.4,0-4.5-0.8-6.2-2.4c-1.7-1.6-2.5-3.5-2.5-5.8
		s0.8-4.3,2.5-5.9S438.1,188.9,440.5,188.9z M445.3,218.6c0-1.4-0.5-2.6-1.4-3.5c-1-0.9-2.1-1.4-3.5-1.4c-1.3,0-2.5,0.5-3.5,1.4
		s-1.5,2.1-1.5,3.5s0.5,2.5,1.5,3.5s2.1,1.4,3.5,1.4s2.6-0.5,3.5-1.4C444.8,221.1,445.3,220,445.3,218.6z M445.5,197.1
		c0-1.4-0.5-2.6-1.4-3.5c-1-0.9-2.1-1.4-3.5-1.4c-1.3,0-2.5,0.5-3.5,1.4s-1.4,2.1-1.4,3.5s0.5,2.5,1.4,3.5c1,0.9,2.1,1.4,3.5,1.4
		s2.6-0.5,3.5-1.4C445,199.6,445.5,198.4,445.5,197.1z"/>
	<path class="st1" d="M481.1,226.9h-5.5l-8-16.4l-8,16.4h-5.4l18.5-38.1h5.4l-7.8,16L481.1,226.9z"/>
	<path class="st1" d="M513.8,226.9h-28.2v-38h28.2v5h-23.1v27.9h23.1V226.9z"/>
	<path class="st1" d="M549,226.9h-28.2v-38H549v5h-23.1v27.9H549V226.9z"/>
	<path class="st1" d="M556.1,208.5v-3h16.7v3H556.1z M564.4,212.5c2.2,0,4,0.7,5.5,2.1c1.5,1.4,2.3,3.1,2.3,5.2c0,2-0.8,3.7-2.3,5.1
		c-1.5,1.4-3.4,2.1-5.5,2.1c-2.2,0-4-0.7-5.5-2.1c-1.5-1.4-2.2-3.1-2.2-5.1s0.7-3.8,2.2-5.2C560.4,213.2,562.2,212.5,564.4,212.5z
		 M564.5,187.4c2.2,0,4,0.7,5.5,2.1s2.3,3.1,2.3,5.2c0,2-0.8,3.7-2.3,5.1c-1.5,1.4-3.4,2.1-5.5,2.1c-2.2,0-4-0.7-5.5-2.1
		c-1.5-1.4-2.2-3.1-2.2-5.1s0.7-3.8,2.2-5.2C560.4,188.1,562.3,187.4,564.5,187.4z M568.2,219.6c0-1.1-0.4-2-1.1-2.8
		c-0.7-0.7-1.6-1.1-2.7-1.1c-1.1,0-2,0.4-2.7,1.1c-0.7,0.7-1.1,1.7-1.1,2.8s0.4,2,1.1,2.8c0.7,0.8,1.7,1.1,2.7,1.1
		c1.1,0,2-0.4,2.7-1.1S568.2,220.6,568.2,219.6z M568.3,194.5c0-1.1-0.4-2-1.1-2.8c-0.7-0.7-1.6-1.1-2.7-1.1c-1.1,0-2,0.4-2.7,1.1
		c-0.7,0.7-1.1,1.7-1.1,2.8s0.4,2,1.1,2.8c0.7,0.8,1.7,1.1,2.7,1.1c1.1,0,2-0.4,2.7-1.1S568.3,195.6,568.3,194.5z"/>
	<path class="st1" d="M601.1,188.8l16.1,38.1h-5.4l-13.4-31.6L585,226.9h-5.5l16.1-38.1L601.1,188.8L601.1,188.8z"/>
	<path class="st1" d="M630.4,209.3c2.5,0,4.6,0.8,6.2,2.5s2.5,3.8,2.5,6.3s-0.8,4.6-2.5,6.3s-3.8,2.5-6.2,2.5s-4.5-0.8-6.2-2.5
		s-2.5-3.8-2.5-6.3s0.8-4.6,2.5-6.3S628,209.3,630.4,209.3z M635.1,218.1c0-1.4-0.5-2.6-1.4-3.5s-2-1.4-3.4-1.4
		c-1.3,0-2.4,0.5-3.3,1.4c-0.9,0.9-1.4,2.1-1.4,3.5s0.5,2.5,1.4,3.5s2,1.4,3.3,1.4s2.5-0.5,3.4-1.4S635.1,219.4,635.1,218.1z"/>
	<path class="st1" d="M671.8,226.9h-28.2v-38h28.2v5h-23.1v27.9h23.1V226.9z"/>
	<path class="st1" d="M698.4,210.4c4.1-0.1,7.6,1.2,10.4,3.7c2.8,2.5,4.2,6.8,4.1,12.8h-5c0.1-4.4-1-7.7-3.5-9.8
		c-1.3-1-3.3-1.5-5.9-1.6v11.4h-5.1v-11.5c-2.7,0.1-4.7,0.6-5.9,1.6c-2.4,2.2-3.6,5.5-3.5,9.9h-5c-0.1-6,1.2-10.3,4-12.9
		c2.8-2.5,6.3-3.8,10.5-3.7v-4.9c-4.2,0.1-7.6-1.2-10.4-3.7c-2.8-2.5-4.2-6.8-4.1-12.9h5.1c-0.2,4.4,1,7.7,3.5,9.9
		c1.3,1,3.2,1.5,5.9,1.6v-11.5h5.1v11.4c2.7-0.1,4.7-0.6,5.9-1.6c2.5-2.1,3.6-5.4,3.5-9.9h5c0.1,6-1.2,10.3-4,12.9
		c-2.8,2.5-6.3,3.8-10.4,3.7v5.1H698.4z"/>
	<path class="st1" d="M744,221.9v-33.1h5v38.1h-30.9v-38.1h5.1v33.1H744z"/>
	<path class="st1" d="M763.6,209.3c2.5,0,4.6,0.8,6.2,2.5s2.5,3.8,2.5,6.3s-0.8,4.6-2.5,6.3s-3.8,2.5-6.2,2.5s-4.5-0.8-6.2-2.5
		s-2.5-3.8-2.5-6.3s0.8-4.6,2.5-6.3S761.2,209.3,763.6,209.3z M768.4,218.1c0-1.4-0.5-2.6-1.4-3.5s-2-1.4-3.4-1.4
		c-1.3,0-2.4,0.5-3.3,1.4c-0.9,0.9-1.4,2.1-1.4,3.5s0.5,2.5,1.4,3.5s2,1.4,3.3,1.4s2.5-0.5,3.4-1.4S768.4,219.4,768.4,218.1z"/>
	<path class="st1" d="M814.4,208.1c-0.1,5.2-2,9.6-5.6,13.3c-3.6,3.6-8.1,5.5-13.3,5.5c-5.1,0-9.5-1.8-13.1-5.5s-5.5-8.1-5.5-13.2
		c-0.1-5.4,1.7-9.9,5.4-13.6c3.6-3.7,8.1-5.6,13.3-5.6c5.3,0,9.7,1.9,13.4,5.6C812.6,198.3,814.5,202.8,814.4,208.1z M809.2,208
		c0-3.9-1.3-7.3-4-10.1s-5.8-4.2-9.5-4.1c-3.8,0-7.1,1.4-9.7,4.2c-2.6,2.8-3.9,6.1-3.9,10c0.1,3.7,1.5,6.9,4,9.6
		c2.6,2.7,5.7,4.1,9.5,4.1c3.6,0,6.7-1.4,9.4-4.1S809.1,211.7,809.2,208z"/>
	<path class="st1" d="M829.2,210.4c2.5,0,4.6,0.8,6.2,2.4c1.7,1.6,2.5,3.6,2.5,5.9c0,2.3-0.8,4.2-2.5,5.8s-3.8,2.4-6.2,2.4
		s-4.5-0.8-6.2-2.4s-2.5-3.5-2.5-5.8s0.8-4.3,2.5-5.9S826.8,210.4,829.2,210.4z M829.4,188.9c2.5,0,4.6,0.8,6.2,2.4
		c1.7,1.6,2.5,3.5,2.5,5.9c0,2.3-0.8,4.2-2.5,5.8s-3.8,2.4-6.2,2.4s-4.5-0.8-6.2-2.4s-2.5-3.5-2.5-5.8s0.8-4.3,2.5-5.9
		S827,188.9,829.4,188.9z M834.2,218.6c0-1.4-0.5-2.6-1.4-3.5c-1-0.9-2.1-1.4-3.5-1.4c-1.3,0-2.5,0.5-3.5,1.4s-1.5,2.1-1.5,3.5
		s0.5,2.5,1.5,3.5s2.1,1.4,3.5,1.4s2.6-0.5,3.5-1.4S834.2,220,834.2,218.6z M834.4,197.1c0-1.4-0.5-2.6-1.4-3.5s-2.1-1.4-3.5-1.4
		c-1.3,0-2.5,0.5-3.5,1.4s-1.4,2.1-1.4,3.5s0.5,2.5,1.4,3.5s2.1,1.4,3.5,1.4s2.6-0.5,3.5-1.4S834.4,198.4,834.4,197.1z"/>
</g>
<polyline class="st2" points="974.6,27 974.6,85 -0.5,85 -0.5,27 "/>
<g class="st3">
	<path class="st1" d="M1298,72.1h-2.9c-0.5,0.6-1,1-1.5,1.3s-1.1,0.3-1.7,0.3c-0.9,0-1.7-0.2-2.3-0.5c-0.6-0.3-1.1-0.7-1.5-1.2
		h-48.2c-0.1,0-0.7,0.6-1.8,1.8s-1.9,1.8-2.6,1.8c-1,0-1.8-0.3-2.3-0.9c-0.2-0.8-0.4-1.5-0.6-2.2c-0.5-0.8-0.7-1.8-0.7-3.1
		c0-0.9,0.2-1.6,0.5-2.2c0.3-0.6,0.9-0.9,1.7-0.9h52.3h3.5c0-1.8-0.4-3.1-1.1-4s-1.6-1.3-2.4-1.3h-39.7c-2.9,0-5.3-0.5-7.4-1.6
		s-3.1-2.8-3.1-5.2c0-3,1.9-6.1,5.7-9.4c3.8-3.3,7.8-5,11.9-5c2,0,3.5,0.3,4.4,1s1.4,1.9,1.4,3.8c0,1.1-0.2,1.9-0.5,2.3
		c-0.4,0.4-1.2,0.6-2.4,0.6c-1.3,0-2.3-0.4-3-1.1s-1.4-1.1-2.1-1.1c-0.9,0-2.7,1.1-5.5,3.2c-2.8,2.2-4.1,4.1-4.1,5.7
		c0,0.8,0.7,1.4,2.2,1.6s4.4,0.3,8.8,0.3h10.3h24.3c2.8,0,5,1.1,6.4,3.3s2.2,4.5,2.2,6.8h2V72.1z"/>
	<path class="st1" d="M1296.5,66.3h6.2c0.6-0.2,1.3-0.4,1.9-0.7s1-0.6,1-1.1c-0.4-3.7-0.9-7.2-1.3-10.6c-0.4-3.4-0.7-5.8-1-7.3
		s-0.9-2.9-2.1-4.4s-1.7-3.1-1.7-4.9c0-1.4,0.5-2.7,1.6-3.7s2.2-1.5,3.3-1.5c0.8,0,1.5,0.5,2.1,1.5c0.7,1,1,2.1,1,3.4
		c0,0.3,0,0.9-0.1,1.8s-0.1,1.4-0.1,1.6c0,2,0.2,4.2,0.7,6.7s0.9,4.6,1.1,6.2c0.2,1.7,0.4,4.2,0.6,7.5s0.3,5.1,0.5,5.4
		c0.1,0,0.4,0.1,0.9,0.1s0.9,0,1.4,0c0.6,0,1,0,1.2,0s0.4,0,0.7,0v5.8h-5.3c-0.4,1.2-1.1,2.6-2.2,4c-1.1,1.5-2.3,2.4-3.6,2.9
		c0-0.8,0.2-1.8,0.7-3.1c0.5-1.3,0.8-2.6,0.9-3.8h-8.4V66.3z"/>
	<path class="st1" d="M1312.6,66.3h4c1.6,0,2.5,0,2.7,0s1.1,0.3,2.8,0.7c0.1-0.2,0.1-0.3,0.2-0.5s0.1-0.4,0.1-0.7
		c0-0.4-0.1-0.8-0.2-1s-0.3-0.4-0.4-0.6s-0.6-0.3-1.6-0.3c-0.8,0-1.5-0.3-2.1-1s-0.8-1.4-0.8-2.2c0-0.9,0.4-1.7,1.1-2.6
		s1.8-1.3,3.1-1.3c1,0,2.1,0.9,3.3,2.6s1.8,4,1.8,6.6c0,1.9-0.3,3.5-1,5s-1.5,2.1-2.5,2.1c-0.5-0.2-1.2-0.4-2.1-0.7
		s-2.6-0.4-5.2-0.4h-3.3V66.3z M1314.9,81.2c0-0.7,0.3-1.3,0.9-2s1.4-0.9,2.4-0.9c1,0,1.8,0.2,2.2,0.7s0.7,1.2,0.7,2.2
		c0,0.8-0.3,1.6-0.9,2.3c-0.6,0.7-1.4,1-2.5,1c-0.6,0-1.2-0.4-1.9-1.1S1314.9,82,1314.9,81.2z M1322.2,80.5c0-0.7,0.3-1.3,0.9-1.9
		s1.4-0.9,2.4-0.9c1.1,0,1.9,0.3,2.3,0.8c0.4,0.5,0.6,1.2,0.6,2.1c0,1.2-0.4,2-1.2,2.6s-1.7,0.8-2.6,0.8c-0.6-0.2-1.1-0.5-1.6-0.9
		C1322.5,82.5,1322.2,81.7,1322.2,80.5z"/>
	<path class="st1" d="M1329.9,42.8c0-0.7,0.3-1.3,0.9-2s1.4-0.9,2.4-0.9c1,0,1.8,0.2,2.2,0.7s0.7,1.2,0.7,2.2c0,0.8-0.3,1.6-0.9,2.3
		c-0.6,0.7-1.4,1-2.5,1c-0.6,0-1.2-0.4-1.9-1.1S1329.9,43.7,1329.9,42.8z M1334.9,65.1c0-3.1,1.3-5.7,3.9-7.9s5.6-3.2,9.1-3.2
		c0.2,0,0.5,0,0.9,0.1c0.3,0,0.6,0.1,0.7,0.1c0-1.7-0.6-3.2-1.8-4.7c-1.2-1.4-1.8-2.5-1.8-3c0-1.2,0.4-2.3,1.1-3.1s1.7-1.2,2.9-1.2
		c1.5,0,2.6,0.3,3.2,1s0.9,1.5,0.9,2.5c0,0.5-0.1,1-0.2,1.4c-0.1,0.4-0.2,0.8-0.3,1c0.6,1.7,1.1,3.7,1.6,5.9
		c0.5,2.2,0.8,4.7,0.8,7.3c0,3.2-0.6,6.2-1.7,9.1c-1.2,2.9-3,5.1-5.6,6.7c0-0.2-0.1-0.5-0.1-0.9c0-0.6,0.2-1.5,0.7-2.7
		s0.7-2.1,0.8-2.8c-1.2,0.5-2.4,1-3.6,1.5s-2.4,0.7-3.7,0.7c-2.7,0-4.7-0.7-5.9-2.1C1335.5,69.3,1334.9,67.5,1334.9,65.1z
		 M1338.9,41.9c0-0.7,0.3-1.3,0.9-1.9s1.4-0.9,2.4-0.9c1.1,0,1.9,0.3,2.3,0.8c0.4,0.5,0.6,1.2,0.6,2.1c0,1.2-0.4,2-1.2,2.5
		s-1.7,0.8-2.6,0.8c-0.6-0.2-1.1-0.5-1.6-0.9C1339.2,43.9,1338.9,43.1,1338.9,41.9z M1341.1,65.7c0.2,0.8,0.6,1.3,1.2,1.7
		c0.7,0.4,1.4,0.6,2.3,0.6c1,0,2-0.2,3.1-0.7c1-0.5,1.8-1,2.3-1.7c0.5-0.6,0.8-1.3,0.9-1.9s0.2-1.4,0.2-2.2
		c-0.1-1.4-0.4-2.3-0.8-2.7s-0.9-0.5-1.4-0.5c-1,0-2.2,0.4-3.6,1.1c-1.4,0.7-2.4,1.5-2.9,2.4c-0.5,0.9-0.9,1.6-1.1,2.2
		S1341,65.1,1341.1,65.7z"/>
	<path class="st1" d="M1397.5,69.9c1.2-0.9,2.1-2.5,2.9-4.7s1.3-4.6,1.7-7c0.4-2.4,0.5-4.6,0.5-6.5c0-3.2-0.5-6.1-1.4-8.6
		c-0.3,0-0.9-0.2-1.6-0.6s-1.2-1.2-1.2-2.5c0-0.9,0.2-1.7,0.7-2.6s1-1.5,1.6-1.9c0.6-0.4,1.2-0.6,1.7-0.6c1.2,0,2.2,0.8,2.9,2.4
		s1.1,3.6,1.1,5.9s-0.1,5.5-0.4,9.4s-0.7,7.5-1.3,10.5c-0.2,1.4,0.2,2.3,1.3,2.7s2.1,0.6,3.3,0.7v5.6h-5.4c-0.8,0-1.5,0.1-1.9,0.3
		c-0.4,0.3-1,0.6-1.6,1s-1.7,0.8-3.1,1.3c-1.4,0.5-2.7,1-4,1.4c0,0.5-0.4,1.5-1.2,2.9s-1.6,2.4-2.5,3.1s-1.4,1-1.7,1.1
		s-0.5,0-0.5-0.2c0-0.3,0.4-1.1,1.2-2.4s1.2-2.5,1.3-3.4c-2.2-0.2-4.4-0.7-6.5-1.4s-3.6-1.8-4.4-3.1s-1.4-2.8-1.9-4.4
		c-0.5-1.6-0.8-3.1-0.8-4.6c0-0.5,0-0.8,0.1-1.1c0.2,0.5,0.5,0.9,0.7,1.4c0.1,0.4,0.3,1.1,0.6,1.9c1.4,2,2.9,3.5,4.5,4.6
		s3.5,1.7,5.9,1.7c0.6,0,1.3-0.1,1.9-0.2c0-1.2-0.1-2.4-0.4-3.8s-0.9-3.9-1.9-7.5l-2.9-11c-0.4-1.2-1.1-2-2.1-2.5s-1.5-0.9-1.6-1.3
		s-0.2-0.9-0.2-1.5c0-1.5,0.5-2.9,1.4-4.1s2-2,3.1-2.2c1.1-0.2,1.9,0.1,2.4,1s0.8,1.6,0.8,2.2c0,0.2-0.1,0.7-0.2,1.6
		s-0.2,1.7-0.2,2.5c0,0.4,0,0.8,0,1s0.1,1.1,0.4,2.5s0.8,3.6,1.6,6.6s1.6,5.9,2.3,8.8s1.3,5.1,1.6,6.8c0.5-0.1,1.1-0.2,1.7-0.3
		S1397,70.4,1397.5,69.9z"/>
	<path class="st1" d="M1421.7,70.7c-1-0.9-1.6-1.4-1.8-1.4c-0.3,0-0.9,0.5-1.8,1.4s-1.6,1.4-1.8,1.4h-9.2v-5.8h5.9
		c0.8-0.1,1.4-0.2,1.7-0.5c0.4-0.2,0.8-0.5,1.4-0.8c-1.2-0.1-2.4-0.3-3.6-0.4c-1.8-0.4-2.6-1.1-2.6-2.3c0-1.3,0.5-2.2,1.5-2.9
		s2.3-1.3,3.8-2.1c0.7-0.5,1.5-1.3,2.5-2.6s1.9-1.9,2.7-1.9c1,0,2,0.6,3,1.9c1,1.3,1.8,2.1,2.4,2.6c1.1,0.6,2.1,1.2,3.2,1.8
		c1.2,0.8,1.7,1.9,1.7,3.2c0,1.3-0.6,2-1.9,2.3c-1.3,0.3-2.7,0.4-4.1,0.5c0.4,0.3,0.7,0.5,1.1,0.7s1.1,0.4,2.1,0.5h5.8v5.8h-10.1
		C1423.3,72.1,1422.7,71.7,1421.7,70.7z M1419.5,58.6c-0.2,0.7-0.5,1.2-1,1.3c-0.5,0.1-1.1,0.3-1.9,0.6s-1.2,0.5-1.2,0.8
		c0,0.3,0.5,0.6,1.4,0.7s2,0.3,3.3,0.4c0.6,0,1.6-0.1,2.9-0.4c1.3-0.2,1.9-0.5,1.9-0.9c0-0.2-0.3-0.4-0.8-0.6s-1.1-0.5-1.8-0.6
		c-0.6-0.1-1.1-0.6-1.3-1.3c-0.2-0.7-0.5-1.1-0.7-1.1C1419.9,57.5,1419.7,57.9,1419.5,58.6z"/>
	<path class="st1" d="M1445.1,61.1c0,3-0.4,6.1-1.2,9.1s-2.4,4.5-4.7,4.5c-0.3,0-0.9-0.4-1.6-1.3s-1.4-1.3-2-1.3h-3.8v-5.8h5.3
		c0.5,0,1,0.2,1.5,0.5c0.5,0.3,0.9,0.6,1.2,0.7c0.1-1.6,0.2-3.4,0.3-5.3s0.1-3.7,0.1-5.4c0-2-0.2-3.8-0.5-5.3
		c-0.4-1.6-0.6-2.7-0.8-3.6s-0.9-2.2-2-4.2c-1.2-1.9-1.8-3.7-1.8-5.1c0-1.4,0.5-2.7,1.6-3.7c1.1-1,2.2-1.5,3.3-1.5
		c0.7,0,1.4,0.5,2.1,1.5c0.7,1,1,2.1,1,3.4c0,0.4,0,1-0.1,1.8s-0.1,1.3-0.1,1.6c0,2,0.2,4.2,0.7,6.7s0.7,4.2,0.8,5.1
		c0.1,0.9,0.3,2.1,0.5,3.6S1445.1,59.8,1445.1,61.1z"/>
	<path class="st1" d="M1468.5,72.1h-3c-1.8,4-3.6,7.2-5.3,9.7s-3.9,4.5-6.5,6s-6,2.3-10,2.3c-1.7,0-3.1-0.2-4-0.7s-2.1-1.3-3.4-2.5
		c-1.3-1.2-2.3-2.7-3-4.3s-1.4-4.5-1.8-8.6l0.3-1.9c0.5,0.2,0.9,1,1.4,2.2s1,3,1.8,5.3c1.5,3.3,3.1,5.2,5,5.6s3.3,0.7,4.6,0.7
		c1.2,0,2.1,0,2.7,0.1c2.9,0,5.7-1.6,8.5-4.8c2.8-3.2,4.2-6.3,4.2-9.4c-3.1,0-5.3-0.6-6.6-1.9c-1.3-1.3-1.9-3-1.9-5.1
		c0-1.5,0.6-3.6,1.9-6.3c1.3-2.7,2.9-4,4.9-4c2.7,0,4.8,1.9,6.1,5.6c0.9,3.8,1.3,5.8,1.4,6h2.9V72.1z M1457,62.9
		c-0.4,0.3-0.5,0.7-0.5,1.2c0,0.5,0.3,1.1,0.8,1.6c0.5,0.5,1.2,0.7,2,0.7c0.3,0,0.6,0,0.9-0.1s0.4-0.3,0.4-0.8
		c0-1.1-0.3-1.9-0.9-2.3c-0.6-0.4-1.1-0.6-1.6-0.6C1457.6,62.6,1457.3,62.7,1457,62.9z"/>
	<path class="st1" d="M1466.8,66.3h6.3c0-1.8,0.3-3.4,1-4.6s2.2-1.8,4.5-1.8c1.6,0,3.2,0.9,4.8,2.8s2.4,4.5,2.4,7.8
		c0,2.1-0.5,3.6-1.5,4.5s-2.2,1.2-3.7,1.2c-1.3,0-2.5-0.4-3.4-1.3c-0.8-1-1.7-1.9-2.5-2.8h-8V66.3z M1478.1,69.4
		c0.5,1,1.1,1.5,1.8,1.5c0.2,0,0.5-0.1,0.9-0.2c0.4-0.2,0.6-0.6,0.6-1.4c0-0.4-0.1-1-0.3-1.6s-0.5-1.2-1-1.6c-0.5-0.4-1-0.6-1.6-0.4
		c-0.3,0.1-0.6,0.3-0.7,0.6s-0.2,0.6-0.2,1c0,0.4,0,0.8,0.1,1.1S1477.9,69,1478.1,69.4z"/>
	<path class="st1" d="M1526.4,69.9c1.2-0.9,2.1-2.5,2.9-4.7s1.3-4.6,1.7-7c0.4-2.4,0.5-4.6,0.5-6.5c0-3.2-0.5-6.1-1.4-8.6
		c-0.3,0-0.9-0.2-1.6-0.6s-1.2-1.2-1.2-2.5c0-0.9,0.2-1.7,0.7-2.6s1-1.5,1.6-1.9c0.6-0.4,1.2-0.6,1.7-0.6c1.2,0,2.2,0.8,2.9,2.4
		s1.1,3.6,1.1,5.9s-0.1,5.5-0.4,9.4s-0.7,7.5-1.3,10.5c-0.2,1.4,0.2,2.3,1.3,2.7s2.1,0.6,3.3,0.7v5.6h-5.4c-0.8,0-1.5,0.1-1.9,0.3
		c-0.4,0.3-1,0.6-1.6,1s-1.7,0.8-3.1,1.3c-1.4,0.5-2.7,1-4,1.4c0,0.5-0.4,1.5-1.2,2.9s-1.6,2.4-2.5,3.1s-1.4,1-1.7,1.1
		s-0.5,0-0.5-0.2c0-0.3,0.4-1.1,1.2-2.4s1.2-2.5,1.3-3.4c-2.2-0.2-4.4-0.7-6.5-1.4s-3.6-1.8-4.4-3.1s-1.4-2.8-1.9-4.4
		c-0.5-1.6-0.8-3.1-0.8-4.6c0-0.5,0-0.8,0.1-1.1c0.2,0.5,0.5,0.9,0.7,1.4c0.1,0.4,0.3,1.1,0.6,1.9c1.4,2,2.9,3.5,4.5,4.6
		s3.5,1.7,5.9,1.7c0.6,0,1.3-0.1,1.9-0.2c0-1.2-0.1-2.4-0.4-3.8s-0.9-3.9-1.9-7.5l-2.9-11c-0.4-1.2-1.1-2-2.1-2.5s-1.5-0.9-1.6-1.3
		s-0.2-0.9-0.2-1.5c0-1.5,0.5-2.9,1.4-4.1s2-2,3.1-2.2c1.1-0.2,1.9,0.1,2.4,1s0.8,1.6,0.8,2.2c0,0.2-0.1,0.7-0.2,1.6
		s-0.2,1.7-0.2,2.5c0,0.4,0,0.8,0,1s0.1,1.1,0.4,2.5s0.8,3.6,1.6,6.6s1.6,5.9,2.3,8.8s1.3,5.1,1.6,6.8c0.5-0.1,1.1-0.2,1.7-0.3
		S1525.9,70.4,1526.4,69.9z"/>
	<path class="st1" d="M1536,66.3h1.8c1.3-0.2,2.6-0.3,4-0.3c1.5,0,2.9,0.1,4,0.4s2.2,0.8,3.1,1.5c0.5-1.5,0.7-2.5,0.7-3
		c0-0.6-0.4-0.9-1.1-0.9c-2.3,0-4.3-0.4-5.9-1.1s-2.4-2-2.4-3.8c0-2.1,0.8-4.3,2.4-6.6s3.1-3.5,4.3-3.7s2-0.3,2.3-0.3
		c1.8,0,3.2,0.8,4.4,2.5s1.9,3.4,2.1,5.1s0.3,2.8,0.4,3.5s0.1,1.2,0.1,1.6c0,1.9-0.2,3.6-0.5,5.3s-0.8,3.1-1.5,4.4s-1.2,2.1-1.6,2.5
		s-0.9,0.6-1.6,0.7c-1,0.2-1.9,0-2.9-0.5c-1.1-0.6-2.2-1.3-3.3-1.9c-0.7,0.1-1.8,0.2-3.3,0.3s-3,0.1-4.4,0.1l-1.3,0.1V66.3z
		 M1538.2,41.4c0-0.7,0.3-1.3,0.9-1.9s1.4-0.9,2.4-0.9c1,0,1.8,0.2,2.2,0.7s0.7,1.2,0.7,2.2c0,0.8-0.3,1.6-0.9,2.3s-1.4,1.1-2.5,1.1
		c-0.6,0-1.2-0.4-1.9-1.1S1538.2,42.2,1538.2,41.4z M1546.3,56.4c-0.3,0.6-0.4,1.1-0.4,1.5c0,0.5,0.4,1,1.3,1.4s1.7,0.6,2.3,0.6
		c0.8,0,1.3-0.5,1.3-1.6c0-0.3,0-0.7-0.1-1.3s-0.5-1.1-1.1-1.8s-1.1-1-1.5-1c-0.3,0-0.6,0.2-0.9,0.5S1546.6,55.7,1546.3,56.4z
		 M1547.2,40.5c0-0.7,0.3-1.3,0.9-2s1.4-0.9,2.4-0.9c1.1,0,1.9,0.3,2.3,0.8s0.6,1.2,0.6,2.1c0,1.2-0.4,2-1.2,2.5s-1.7,0.8-2.6,0.8
		c-0.5-0.2-1.1-0.5-1.6-0.9S1547.2,41.7,1547.2,40.5z"/>
	<path class="st1" d="M1575.4,72.1c-0.3-0.1-0.6-0.1-0.9-0.1s-1.1,0-2.2,0c-0.9,0-1.5,0.1-1.9,0.3s-1.1,1-2.1,2.4s-2.5,2.4-4.4,3.1
		l-0.3-0.9c0.4-0.8,1.1-1.8,2.2-3.2c0.8-1.6,1.2-4,1.2-7.3l-3.2-18c-0.7-1.2-1.4-2.4-2.1-3.7s-1.1-2.6-1.1-3.9c0-2,0.6-3.5,1.7-4.5
		s2.2-1.5,3.2-1.5c0.8,0,1.4,0.4,1.9,1.2s0.7,1.8,0.7,2.9c0,0.8-0.2,2.1-0.5,3.9s-0.4,3-0.4,3.4c0.5,3.5,1.1,6.8,1.7,9.8
		s1.2,5.4,1.6,7s0.7,2.8,0.9,3.5h4.1V72.1z"/>
	<path class="st1" d="M1573.6,66.3h4c1.6,0,2.5,0,2.7,0s1.1,0.3,2.8,0.7c0.1-0.2,0.1-0.3,0.2-0.5s0.1-0.4,0.1-0.7
		c0-0.4-0.1-0.8-0.2-1s-0.3-0.4-0.4-0.6s-0.6-0.3-1.6-0.3c-0.8,0-1.5-0.3-2.1-1s-0.8-1.4-0.8-2.2c0-0.9,0.4-1.7,1.1-2.6
		s1.8-1.3,3.1-1.3c1,0,2.1,0.9,3.3,2.6s1.8,4,1.8,6.6c0,1.9-0.3,3.5-1,5s-1.5,2.1-2.5,2.1c-0.5-0.2-1.2-0.4-2.1-0.7
		s-2.6-0.4-5.2-0.4h-3.3V66.3z M1578.9,48.9c0-0.7,0.3-1.3,0.9-1.9s1.4-0.9,2.4-0.9c1.9,0,2.9,1,2.9,2.9c0,0.8-0.3,1.6-0.9,2.3
		s-1.4,1.1-2.5,1.1c-0.6,0-1.2-0.4-1.9-1.1S1578.9,49.7,1578.9,48.9z"/>
	<path class="st1" d="M1613,72.1h-3c-1.8,4-3.6,7.2-5.3,9.7s-3.9,4.5-6.5,6s-6,2.3-10,2.3c-1.7,0-3.1-0.2-4-0.7s-2.1-1.3-3.4-2.5
		s-2.3-2.7-3-4.3s-1.4-4.5-1.8-8.6l0.3-1.9c0.5,0.2,0.9,1,1.4,2.2s1,3,1.8,5.3c1.5,3.3,3.1,5.2,5,5.6s3.3,0.7,4.6,0.7s2.1,0,2.7,0.1
		c2.9,0,5.7-1.6,8.5-4.8s4.2-6.3,4.2-9.4c-3.1,0-5.3-0.6-6.6-1.9s-1.9-3-1.9-5.1c0-1.5,0.6-3.6,1.9-6.3s2.9-4,4.9-4
		c2.7,0,4.8,1.9,6.1,5.6c0.9,3.8,1.3,5.8,1.4,6h2.9V72.1z M1601.6,62.9c-0.4,0.3-0.5,0.7-0.5,1.2c0,0.5,0.3,1.1,0.8,1.6
		s1.2,0.7,2,0.7c0.3,0,0.6,0,0.9-0.1s0.4-0.3,0.4-0.8c0-1.1-0.3-1.9-0.9-2.3s-1.1-0.6-1.6-0.6C1602.2,62.6,1601.9,62.7,1601.6,62.9z
		"/>
	<path class="st1" d="M1629.9,72.1h-5.9c-0.4,0.1-0.6,0.2-0.9,0.2c-0.4,0-1-0.4-1.6-1.3s-1.2-1.6-1.7-2c-0.6,1.1-1,1.9-1.3,2.4
		s-0.8,0.8-1.5,0.8h-5.5v-5.8h2.9c3.1,0,4.9-0.9,5.3-2.6s1.2-2.6,2.4-2.6c0.2,0,0.8,0.9,1.9,2.6s2.5,2.6,4.1,2.6h1.9V72.1z
		 M1614.3,50.5c0-0.7,0.3-1.3,0.9-2s1.4-0.9,2.4-0.9c1.9,0,2.9,1,2.9,2.9c0,0.8-0.3,1.6-0.9,2.3s-1.4,1.1-2.5,1.1
		c-0.6,0-1.2-0.4-1.9-1.1S1614.3,51.3,1614.3,50.5z"/>
	<path class="st1" d="M1628.2,66.3h4c1.6,0,2.5,0,2.7,0s1.1,0.3,2.8,0.7c0.1-0.2,0.1-0.3,0.2-0.5s0.1-0.4,0.1-0.7
		c0-0.4-0.1-0.8-0.2-1s-0.3-0.4-0.4-0.6s-0.6-0.3-1.6-0.3c-0.8,0-1.5-0.3-2.1-1s-0.8-1.4-0.8-2.2c0-0.9,0.4-1.7,1.1-2.6
		s1.8-1.3,3.1-1.3c1,0,2.1,0.9,3.3,2.6s1.8,4,1.8,6.6c0,1.9-0.3,3.5-1,5s-1.5,2.1-2.5,2.1c-0.5-0.2-1.2-0.4-2.1-0.7
		s-2.6-0.4-5.2-0.4h-3.3V66.3z M1630.4,81.2c0-0.7,0.3-1.3,0.9-2s1.4-0.9,2.4-0.9c1,0,1.8,0.2,2.2,0.7s0.7,1.2,0.7,2.2
		c0,0.8-0.3,1.6-0.9,2.3s-1.4,1-2.5,1c-0.6,0-1.2-0.4-1.9-1.1S1630.4,82,1630.4,81.2z M1637.8,80.5c0-0.7,0.3-1.3,0.9-1.9
		s1.4-0.9,2.4-0.9c1.1,0,1.9,0.3,2.3,0.8s0.6,1.2,0.6,2.1c0,1.2-0.4,2-1.2,2.6s-1.7,0.8-2.6,0.8c-0.6-0.2-1.1-0.5-1.6-0.9
		S1637.8,81.7,1637.8,80.5z"/>
	<path class="st1" d="M1645.5,42.8c0-0.7,0.3-1.3,0.9-2s1.4-0.9,2.4-0.9c1,0,1.8,0.2,2.2,0.7s0.7,1.2,0.7,2.2c0,0.8-0.3,1.6-0.9,2.3
		s-1.4,1-2.5,1c-0.6,0-1.2-0.4-1.9-1.1S1645.5,43.7,1645.5,42.8z M1650.4,65.1c0-3.1,1.3-5.7,3.9-7.9s5.6-3.2,9.1-3.2
		c0.2,0,0.5,0,0.9,0.1s0.6,0.1,0.7,0.1c0-1.7-0.6-3.2-1.8-4.7s-1.8-2.5-1.8-3c0-1.2,0.4-2.3,1.1-3.1s1.7-1.2,2.9-1.2
		c1.5,0,2.6,0.3,3.2,1s0.9,1.5,0.9,2.5c0,0.5-0.1,1-0.2,1.4s-0.2,0.8-0.3,1c0.6,1.7,1.1,3.7,1.6,5.9s0.8,4.7,0.8,7.3
		c0,3.2-0.6,6.2-1.7,9.1s-3,5.1-5.6,6.7c0-0.2-0.1-0.5-0.1-0.9c0-0.6,0.2-1.5,0.7-2.7s0.7-2.1,0.8-2.8c-1.2,0.5-2.4,1-3.6,1.5
		s-2.4,0.7-3.7,0.7c-2.7,0-4.7-0.7-5.9-2.1S1650.4,67.5,1650.4,65.1z M1654.5,41.9c0-0.7,0.3-1.3,0.9-1.9s1.4-0.9,2.4-0.9
		c1.1,0,1.9,0.3,2.3,0.8s0.6,1.2,0.6,2.1c0,1.2-0.4,2-1.2,2.5s-1.7,0.8-2.6,0.8c-0.6-0.2-1.1-0.5-1.6-0.9S1654.5,43.1,1654.5,41.9z
		 M1656.7,65.7c0.2,0.8,0.6,1.3,1.2,1.7s1.4,0.6,2.3,0.6c1,0,2-0.2,3.1-0.7s1.8-1,2.3-1.7s0.8-1.3,0.9-1.9s0.2-1.4,0.2-2.2
		c-0.1-1.4-0.4-2.3-0.8-2.7s-0.9-0.5-1.4-0.5c-1,0-2.2,0.4-3.6,1.1s-2.4,1.5-2.9,2.4s-0.9,1.6-1.1,2.2S1656.6,65.1,1656.7,65.7z"/>
	<path class="st1" d="M1688.6,88.4c4.6-0.7,8.6-2.6,12-5.7s5.1-6.7,5.1-11c-0.5,0-1.3,0.1-2.5,0.4s-2,0.4-2.4,0.4
		c-0.3,0-1.1-0.1-2.4-0.4s-2.3-1-3-2.2s-1-3.1-1-5.7c0-3.9,0.9-6.7,2.7-8.5s3.7-2.7,5.6-2.7c2.7,0,4.9,1.5,6.6,4.5s2.5,6.6,2.5,10.9
		c0,6.9-2.4,12.7-7.3,17.4s-10.3,7.1-16.2,7.1c-2.2,0-4.7-0.3-7.6-1s-5.5-2.1-7.8-4.4s-4.1-4.1-5.5-5.7s-2.2-3-2.7-4.3
		s-0.7-2.2-0.8-2.6s-0.2-0.7-0.2-0.8c0-0.4,0.2-0.6,0.5-0.5c0.3,0,0.5,0.3,0.6,0.7s0.1,0.8,0.1,1.1c1.8,2.6,3.3,4.5,4.5,5.7
		s3,2.5,5.2,3.9s4.2,2.4,6,2.8s3.5,0.7,5.2,0.7C1686.8,88.6,1687.6,88.5,1688.6,88.4z M1701.7,59.5c-0.9,0-1.5,0.6-1.8,1.8
		c-0.2,1.4-0.3,2.3-0.4,2.6c-0.1,0.6,0.2,1.3,0.9,2s1.3,1.1,1.9,1c1.2-0.2,2-0.4,2.4-0.8s0.6-0.9,0.6-1.5c0-0.4-0.1-0.8-0.1-0.9
		c0-0.7-0.3-1.6-1-2.7S1702.7,59.3,1701.7,59.5z"/>
	<path class="st1" d="M1737.7,69.9c1.2-0.9,2.1-2.5,2.9-4.7s1.3-4.6,1.7-7s0.5-4.6,0.5-6.5c0-3.2-0.5-6.1-1.4-8.6
		c-0.3,0-0.9-0.2-1.6-0.6s-1.2-1.2-1.2-2.5c0-0.9,0.2-1.7,0.7-2.6s1-1.5,1.6-1.9s1.2-0.6,1.7-0.6c1.2,0,2.2,0.8,2.9,2.4
		s1.1,3.6,1.1,5.9s-0.1,5.5-0.4,9.4s-0.7,7.5-1.3,10.5c-0.2,1.4,0.2,2.3,1.3,2.7s2.1,0.6,3.3,0.7v5.6h-5.4c-0.8,0-1.5,0.1-1.9,0.3
		c-0.4,0.3-1,0.6-1.6,1s-1.7,0.8-3.1,1.3s-2.7,1-4,1.4c0,0.5-0.4,1.5-1.2,2.9s-1.6,2.4-2.5,3.1s-1.4,1-1.7,1.1s-0.5,0-0.5-0.2
		c0-0.3,0.4-1.1,1.2-2.4s1.2-2.5,1.3-3.4c-2.2-0.2-4.4-0.7-6.5-1.4s-3.6-1.8-4.4-3.1s-1.4-2.8-1.9-4.4s-0.8-3.1-0.8-4.6
		c0-0.5,0-0.8,0.1-1.1c0.2,0.5,0.5,0.9,0.7,1.4c0.1,0.4,0.3,1.1,0.6,1.9c1.4,2,2.9,3.5,4.5,4.6s3.5,1.7,5.9,1.7
		c0.6,0,1.3-0.1,1.9-0.2c0-1.2-0.1-2.4-0.4-3.8s-0.9-3.9-1.9-7.5l-2.9-11c-0.4-1.2-1.1-2-2.1-2.5s-1.5-0.9-1.6-1.3s-0.2-0.9-0.2-1.5
		c0-1.5,0.5-2.9,1.4-4.1s2-2,3.1-2.2c1.1-0.2,1.9,0.1,2.4,1s0.8,1.6,0.8,2.2c0,0.2-0.1,0.7-0.2,1.6s-0.2,1.7-0.2,2.5
		c0,0.4,0,0.8,0,1s0.1,1.1,0.4,2.5s0.8,3.6,1.6,6.6s1.6,5.9,2.3,8.8s1.3,5.1,1.6,6.8c0.5-0.1,1.1-0.2,1.7-0.3
		S1737.2,70.4,1737.7,69.9z"/>
	<path class="st1" d="M1768.4,72.1h-4.8c-0.7,0-1.4-0.2-2.3-0.6s-1.4-0.5-1.6-0.5c-1,0.3-1.9,0.6-2.8,0.8s-1.7,0.3-2.5,0.3h-1.8
		h-5.2v-5.8h5.9c-0.4,0-0.7-0.6-1.1-1.9s-0.6-2.5-0.6-3.8c0-2.1,0.6-3.7,1.9-4.8s2.9-1.6,4.8-1.6c2.2,0,4,0.9,5.4,2.6
		s2.1,3.7,2.1,5.8c0,0.4-0.1,0.8-0.2,1.3s-0.4,1.3-0.8,2.3h3.5V72.1z M1754.1,47.2c0,1-0.3,1.7-0.9,2.2s-1.4,0.7-2.3,0.7
		c-0.7,0-1.3-0.3-1.8-0.8s-0.7-1.2-0.7-2.1c0-0.9,0.4-1.7,1.1-2.3s1.3-0.9,1.8-0.9c1.2,0,1.9,0.3,2.3,0.9S1754.1,46.3,1754.1,47.2z
		 M1761.4,47.2c0,1-0.3,1.7-0.8,2.2s-1.3,0.7-2.1,0.7c-2.3,0-3.5-0.8-3.5-2.5c0-1.1,0.3-2,1-2.7s1.6-1.1,2.8-1.1
		c0.5,0.3,1.1,0.6,1.7,1S1761.4,46,1761.4,47.2z M1757.1,62.5c0.1,0.6,0.3,1.2,0.5,1.7s0.6,0.7,1,0.7c0.3,0,0.6-0.2,0.9-0.6
		s0.6-0.8,0.8-1.2s0.3-0.9,0.2-1.4c-0.1-0.6-0.3-1.1-0.5-1.6s-0.8-0.7-1.6-0.5c-0.6,0.1-1,0.3-1.2,0.6s-0.2,0.6-0.2,0.9
		C1756.9,61.4,1756.9,61.9,1757.1,62.5z"/>
	<path class="st1" d="M1785.1,72.1h-5.9c-0.4,0.1-0.6,0.2-0.9,0.2c-0.4,0-1-0.4-1.6-1.3s-1.2-1.6-1.7-2c-0.6,1.1-1,1.9-1.3,2.4
		s-0.8,0.8-1.5,0.8h-5.5v-5.8h2.9c3.1,0,4.9-0.9,5.3-2.6s1.2-2.6,2.4-2.6c0.2,0,0.8,0.9,1.9,2.6s2.5,2.6,4.1,2.6h1.9V72.1z
		 M1768.9,49.1c0-0.7,0.3-1.3,0.9-2s1.4-0.9,2.4-0.9c1,0,1.8,0.2,2.2,0.7s0.7,1.2,0.7,2.2c0,0.8-0.3,1.6-0.9,2.3s-1.4,1-2.5,1
		c-0.6,0-1.2-0.4-1.9-1.1S1768.9,49.9,1768.9,49.1z M1776.7,49.1c0-0.7,0.3-1.3,0.9-2s1.4-0.9,2.4-0.9c1.1,0,1.9,0.3,2.3,0.8
		s0.6,1.2,0.6,2.1c0,1.2-0.4,2-1.2,2.5s-1.7,0.8-2.7,0.8c-0.5-0.2-1.1-0.5-1.6-0.9S1776.7,50.3,1776.7,49.1z"/>
	<path class="st1" d="M1825.5,74.4c-1,0-1.8-0.6-2.4-1.8s-1.3-1.8-2-1.8c-0.8,0-1.5,0.2-2.1,0.5s-3,0.5-7.4,0.5
		c-3.3,0-5.7,0-7.3-0.1s-2.9-0.2-4-0.3c-0.8,0-1.5,0.1-2.2,0.2s-1.3,0.2-1.8,0.3s-1.1,0.5-1.9,1.2s-1.6,1-2.5,1c-1,0-1.7-0.3-2.2-1
		s-0.8-1-1.1-1h-1.7h-1.1h-0.8c-0.6,0-1,0-1.2-0.1v-5.8l2.9,0.1c0-1.7,0.1-2.9,0.4-3.8s0.7-1.2,1.3-1.2c1.4,0,2.5,1.5,3,4.4
		c1.3-1.5,2.7-3.2,4.4-5.2s3.9-3.8,6.7-5.4s6.3-2.4,10.6-2.4c3.8,0,7.1,1.3,9.9,3.9s4.3,5.8,4.6,9.6c0,1.8-0.2,3.6-0.4,5.4
		S1826.5,74.4,1825.5,74.4z M1821.4,65c-0.6-1.6-1.9-3-3.9-4.2s-3.6-1.9-4.9-2.1s-2.2-0.2-2.6-0.2c-2,0-4.1,0.6-6.4,1.9
		s-4.1,3.1-5.6,5.4c0.7,0.2,1.6,0.4,2.7,0.5s2.9,0.2,5.4,0.2c2.1,0,4.7-0.1,7.9-0.4S1819.7,65.5,1821.4,65z"/>
	<path class="st1" d="M1834.1,44.1c-0.2-1-0.5-1.8-1-2.4s-1-1.1-1.5-1.7c-0.2-1.8,0.4-3.4,1.7-4.8s2.7-2.2,4.1-2.2
		c1,0,1.8,0.5,2.2,1.4s0.6,1.7,0.5,2.3c-0.3,1-0.6,2-0.9,3s-0.5,2.3-0.5,3.5c0,2.6,0.3,5.9,0.8,10s0.8,7.1,0.8,9.2
		c0,1.7-1,4.1-2.9,7.2s-4.6,5.2-7.8,6.1c1.8-2.1,3-3.9,3.7-5.1s1.2-2.5,1.5-3.8s0.5-2.3,0.5-3.1s0.1-1.7,0.1-2.5
		c0-0.7,0-1.6-0.1-2.8s-0.2-2.1-0.2-3L1834.1,44.1z"/>
	<path class="st1" d="M1871.7,72.1h-3c-0.7,0-1.6-0.2-2.7-0.6s-1.6-0.6-1.7-0.6c-0.1,0-0.4,0.2-0.9,0.6s-1.3,0.6-2.7,0.6
		c-0.7,0-1.7-0.1-3.1-0.4s-2.4-0.4-3.2-0.4c-2.3,0-4.4,0.7-6.2,2.2c-1.6,1.8-3.1,3.7-4.6,5.5c-0.2-0.6-0.2-1,0-1.2
		c0-2.2,0.9-4.4,2.8-6.5s3.6-3.4,5.2-3.9s2.9-0.9,4.1-1.1s1.9-0.3,2.2-0.4c-2.3-1.3-4.2-2.5-5.7-3.6s-2.3-2.8-2.3-5.1
		c0-1.5,0.5-2.8,1.4-3.8s2.1-1.6,3.6-1.6c1,0,1.8,0.4,2.3,1.1s0.8,1.4,0.8,2c0,1.3-0.5,2-1.6,2.2s-1.6,0.4-1.6,0.8
		c0,1,1.7,1.9,5.1,2.8s5.5,2.6,6.4,5.2c1.1,0.4,2.5,0.5,4.2,0.5h1.1V72.1z"/>
	<path class="st1" d="M1870.4,66.3h4c1.6,0,2.5,0,2.7,0s1.1,0.3,2.8,0.7c0.1-0.2,0.1-0.3,0.2-0.5s0.1-0.4,0.1-0.7
		c0-0.4-0.1-0.8-0.2-1s-0.3-0.4-0.4-0.6s-0.6-0.3-1.6-0.3c-0.8,0-1.5-0.3-2.1-1s-0.8-1.4-0.8-2.2c0-0.9,0.4-1.7,1.1-2.6
		s1.8-1.3,3.1-1.3c1,0,2.1,0.9,3.3,2.6s1.8,4,1.8,6.6c0,1.9-0.3,3.5-1,5s-1.5,2.1-2.5,2.1c-0.5-0.2-1.2-0.4-2.1-0.7
		s-2.6-0.4-5.2-0.4h-3.3V66.3z M1872.6,81.2c0-0.7,0.3-1.3,0.9-2s1.4-0.9,2.4-0.9c1,0,1.8,0.2,2.2,0.7s0.7,1.2,0.7,2.2
		c0,0.8-0.3,1.6-0.9,2.3s-1.4,1-2.5,1c-0.6,0-1.2-0.4-1.9-1.1S1872.6,82,1872.6,81.2z M1880,80.5c0-0.7,0.3-1.3,0.9-1.9
		s1.4-0.9,2.4-0.9c1.1,0,1.9,0.3,2.3,0.8s0.6,1.2,0.6,2.1c0,1.2-0.4,2-1.2,2.6s-1.7,0.8-2.6,0.8c-0.6-0.2-1.1-0.5-1.6-0.9
		S1880,81.7,1880,80.5z"/>
	<path class="st1" d="M1887.6,42.8c0-0.7,0.3-1.3,0.9-2s1.4-0.9,2.4-0.9c1,0,1.8,0.2,2.2,0.7s0.7,1.2,0.7,2.2c0,0.8-0.3,1.6-0.9,2.3
		s-1.4,1-2.5,1c-0.6,0-1.2-0.4-1.9-1.1S1887.6,43.7,1887.6,42.8z M1892.6,65.1c0-3.1,1.3-5.7,3.9-7.9s5.6-3.2,9.1-3.2
		c0.2,0,0.5,0,0.9,0.1s0.6,0.1,0.7,0.1c0-1.7-0.6-3.2-1.8-4.7s-1.8-2.5-1.8-3c0-1.2,0.4-2.3,1.1-3.1s1.7-1.2,2.9-1.2
		c1.5,0,2.6,0.3,3.2,1s0.9,1.5,0.9,2.5c0,0.5-0.1,1-0.2,1.4s-0.2,0.8-0.3,1c0.6,1.7,1.1,3.7,1.6,5.9s0.8,4.7,0.8,7.3
		c0,3.2-0.6,6.2-1.7,9.1s-3,5.1-5.6,6.7c0-0.2-0.1-0.5-0.1-0.9c0-0.6,0.2-1.5,0.7-2.7s0.7-2.1,0.8-2.8c-1.2,0.5-2.4,1-3.6,1.5
		s-2.4,0.7-3.7,0.7c-2.7,0-4.7-0.7-5.9-2.1S1892.6,67.5,1892.6,65.1z M1896.7,41.9c0-0.7,0.3-1.3,0.9-1.9s1.4-0.9,2.4-0.9
		c1.1,0,1.9,0.3,2.3,0.8s0.6,1.2,0.6,2.1c0,1.2-0.4,2-1.2,2.5s-1.7,0.8-2.6,0.8c-0.6-0.2-1.1-0.5-1.6-0.9S1896.7,43.1,1896.7,41.9z
		 M1898.9,65.7c0.2,0.8,0.6,1.3,1.2,1.7s1.4,0.6,2.3,0.6c1,0,2-0.2,3.1-0.7s1.8-1,2.3-1.7s0.8-1.3,0.9-1.9s0.2-1.4,0.2-2.2
		c-0.1-1.4-0.4-2.3-0.8-2.7s-0.9-0.5-1.4-0.5c-1,0-2.2,0.4-3.6,1.1s-2.4,1.5-2.9,2.4s-0.9,1.6-1.1,2.2S1898.8,65.1,1898.9,65.7z"/>
	<path class="st1" d="M1930.7,88.4c4.6-0.7,8.6-2.6,12-5.7s5.1-6.7,5.1-11c-0.5,0-1.3,0.1-2.5,0.4s-2,0.4-2.4,0.4
		c-0.3,0-1.1-0.1-2.4-0.4s-2.3-1-3-2.2s-1-3.1-1-5.7c0-3.9,0.9-6.7,2.7-8.5s3.7-2.7,5.6-2.7c2.7,0,4.9,1.5,6.6,4.5s2.5,6.6,2.5,10.9
		c0,6.9-2.4,12.7-7.3,17.4s-10.3,7.1-16.2,7.1c-2.2,0-4.7-0.3-7.6-1s-5.5-2.1-7.8-4.4s-4.1-4.1-5.5-5.7s-2.2-3-2.7-4.3
		s-0.7-2.2-0.8-2.6s-0.2-0.7-0.2-0.8c0-0.4,0.2-0.6,0.5-0.5c0.3,0,0.5,0.3,0.6,0.7s0.1,0.8,0.1,1.1c1.8,2.6,3.3,4.5,4.5,5.7
		s3,2.5,5.2,3.9s4.2,2.4,6,2.8s3.5,0.7,5.2,0.7C1928.9,88.6,1929.8,88.5,1930.7,88.4z M1943.9,59.5c-0.9,0-1.5,0.6-1.8,1.8
		c-0.2,1.4-0.3,2.3-0.4,2.6c-0.1,0.6,0.2,1.3,0.9,2s1.3,1.1,1.9,1c1.2-0.2,2-0.4,2.4-0.8s0.6-0.9,0.6-1.5c0-0.4-0.1-0.8-0.1-0.9
		c0-0.7-0.3-1.6-1-2.7S1944.9,59.3,1943.9,59.5z"/>
	<path class="st1" d="M1979.9,69.9c1.2-0.9,2.1-2.5,2.9-4.7s1.3-4.6,1.7-7s0.5-4.6,0.5-6.5c0-3.2-0.5-6.1-1.4-8.6
		c-0.3,0-0.9-0.2-1.6-0.6s-1.2-1.2-1.2-2.5c0-0.9,0.2-1.7,0.7-2.6s1-1.5,1.6-1.9s1.2-0.6,1.7-0.6c1.2,0,2.2,0.8,2.9,2.4
		s1.1,3.6,1.1,5.9s-0.1,5.5-0.4,9.4s-0.7,7.5-1.3,10.5c-0.2,1.4,0.2,2.3,1.3,2.7s2.1,0.6,3.3,0.7v5.6h-5.4c-0.8,0-1.5,0.1-1.9,0.3
		c-0.4,0.3-1,0.6-1.6,1s-1.7,0.8-3.1,1.3s-2.7,1-4,1.4c0,0.5-0.4,1.5-1.2,2.9s-1.6,2.4-2.5,3.1s-1.4,1-1.7,1.1s-0.5,0-0.5-0.2
		c0-0.3,0.4-1.1,1.2-2.4s1.2-2.5,1.3-3.4c-2.2-0.2-4.4-0.7-6.5-1.4s-3.6-1.8-4.4-3.1s-1.4-2.8-1.9-4.4s-0.8-3.1-0.8-4.6
		c0-0.5,0-0.8,0.1-1.1c0.2,0.5,0.5,0.9,0.7,1.4c0.1,0.4,0.3,1.1,0.6,1.9c1.4,2,2.9,3.5,4.5,4.6s3.5,1.7,5.9,1.7
		c0.6,0,1.3-0.1,1.9-0.2c0-1.2-0.1-2.4-0.4-3.8s-0.9-3.9-1.9-7.5l-2.9-11c-0.4-1.2-1.1-2-2.1-2.5s-1.5-0.9-1.6-1.3s-0.2-0.9-0.2-1.5
		c0-1.5,0.5-2.9,1.4-4.1s2-2,3.1-2.2c1.1-0.2,1.9,0.1,2.4,1s0.8,1.6,0.8,2.2c0,0.2-0.1,0.7-0.2,1.6s-0.2,1.7-0.2,2.5
		c0,0.4,0,0.8,0,1s0.1,1.1,0.4,2.5s0.8,3.6,1.6,6.6s1.6,5.9,2.3,8.8s1.3,5.1,1.6,6.8c0.5-0.1,1.1-0.2,1.7-0.3
		S1979.4,70.4,1979.9,69.9z"/>
	<path class="st1" d="M1989.3,66.3l2.3,0.1c2.4,0,4.7-0.1,6.9-0.2s4.3-0.3,6.4-0.5c0-2.1-0.8-3.5-2.5-4.3c-1.3-0.5-2.6-1.1-4-1.7
		c-0.4,0.4-0.9,0.8-1.5,1.3s-1.2,0.8-1.9,0.8c-1.5,0-2.4-0.4-2.9-1.3s-0.7-1.9-0.7-3c0-1.7,0.6-2.9,1.8-3.7s2.7-1.1,4.4-1.1
		c3.3,0,6.1,1.6,8.4,4.7s4.1,5.2,5.3,6.2s2.8,1.6,4.7,2s3.8,0.6,5.6,0.7v5.8h-1.9c-0.3,0-1.5-0.1-3.7-0.3s-4.3-0.3-6.2-0.3
		c-5.6,0-9.6,0.1-12,0.2s-4.5,0.2-6.4,0.2l-2.1,0.1V66.3z M2002.9,79.5c0-0.7,0.3-1.3,0.9-1.9s1.4-0.9,2.4-0.9
		c1.1,0,1.9,0.3,2.3,0.8s0.6,1.2,0.6,2.1c0,1.2-0.4,2-1.2,2.6s-1.7,0.8-2.6,0.8c-0.6-0.2-1.1-0.5-1.6-0.9S2002.9,80.7,2002.9,79.5z"
		/>
	<path class="st1" d="M2038.6,72.1h-5.9c-0.4,0.1-0.6,0.2-0.9,0.2c-0.4,0-1-0.4-1.6-1.3s-1.2-1.6-1.7-2c-0.6,1.1-1,1.9-1.3,2.4
		s-0.8,0.8-1.5,0.8h-5.5v-5.8h2.9c3.1,0,4.9-0.9,5.3-2.6s1.2-2.6,2.4-2.6c0.2,0,0.8,0.9,1.9,2.6s2.5,2.6,4.1,2.6h1.9V72.1z
		 M2022.4,49.1c0-0.7,0.3-1.3,0.9-2s1.4-0.9,2.4-0.9c1,0,1.8,0.2,2.2,0.7s0.7,1.2,0.7,2.2c0,0.8-0.3,1.6-0.9,2.3s-1.4,1-2.5,1
		c-0.6,0-1.2-0.4-1.9-1.1S2022.4,49.9,2022.4,49.1z M2030.3,49.1c0-0.7,0.3-1.3,0.9-2s1.4-0.9,2.4-0.9c1.1,0,1.9,0.3,2.3,0.8
		s0.6,1.2,0.6,2.1c0,1.2-0.4,2-1.2,2.5s-1.7,0.8-2.7,0.8c-0.5-0.2-1.1-0.5-1.6-0.9S2030.3,50.3,2030.3,49.1z"/>
	<path class="st1" d="M2037.5,66.3h6.3c0-1.8,0.3-3.4,1-4.6s2.2-1.8,4.5-1.8c1.6,0,3.2,0.9,4.8,2.8s2.4,4.5,2.4,7.8
		c0,2.1-0.5,3.6-1.5,4.5s-2.2,1.2-3.7,1.2c-1.3,0-2.5-0.4-3.4-1.3c-0.8-1-1.7-1.9-2.5-2.8h-8V66.3z M2048.8,69.4
		c0.5,1,1.1,1.5,1.8,1.5c0.2,0,0.5-0.1,0.9-0.2s0.6-0.6,0.6-1.4c0-0.4-0.1-1-0.3-1.6s-0.5-1.2-1-1.6s-1-0.6-1.6-0.4
		c-0.3,0.1-0.6,0.3-0.7,0.6s-0.2,0.6-0.2,1c0,0.4,0,0.8,0.1,1.1S2048.6,69,2048.8,69.4z"/>
	<path class="st1" d="M2076.5,72.1c-0.3-0.1-0.6-0.1-0.9-0.1s-1.1,0-2.2,0c-0.9,0-1.5,0.1-1.9,0.3s-1.1,1-2.1,2.4s-2.5,2.4-4.4,3.1
		l-0.3-0.9c0.4-0.8,1.1-1.8,2.2-3.2c0.8-1.6,1.2-4,1.2-7.3l-3.2-18c-0.7-1.2-1.4-2.4-2.1-3.7s-1.1-2.6-1.1-3.9c0-2,0.6-3.5,1.7-4.5
		s2.2-1.5,3.2-1.5c0.8,0,1.4,0.4,1.9,1.2s0.7,1.8,0.7,2.9c0,0.8-0.2,2.1-0.5,3.9s-0.4,3-0.4,3.4c0.5,3.5,1.1,6.8,1.7,9.8
		s1.2,5.4,1.6,7s0.7,2.8,0.9,3.5h4.1V72.1z"/>
	<path class="st1" d="M2089.5,70.7c-1-0.9-1.6-1.4-1.8-1.4c-0.3,0-0.9,0.5-1.8,1.4s-1.6,1.4-1.8,1.4h-9.2v-5.8h5.9
		c0.8-0.1,1.4-0.2,1.7-0.5s0.8-0.5,1.4-0.8c-1.2-0.1-2.4-0.3-3.6-0.4c-1.8-0.4-2.6-1.1-2.6-2.3c0-1.3,0.5-2.2,1.5-2.9
		s2.3-1.3,3.8-2.1c0.7-0.5,1.5-1.3,2.5-2.6s1.9-1.9,2.7-1.9c1,0,2,0.6,3,1.9s1.8,2.1,2.4,2.6c1.1,0.6,2.1,1.2,3.2,1.8
		c1.2,0.8,1.7,1.9,1.7,3.2c0,1.3-0.6,2-1.9,2.3s-2.7,0.4-4.1,0.5c0.4,0.3,0.7,0.5,1.1,0.7s1.1,0.4,2.1,0.5h5.8v5.8h-10.1
		C2091.1,72.1,2090.4,71.7,2089.5,70.7z M2087.3,58.6c-0.2,0.7-0.5,1.2-1,1.3s-1.1,0.3-1.9,0.6s-1.2,0.5-1.2,0.8
		c0,0.3,0.5,0.6,1.4,0.7s2,0.3,3.3,0.4c0.6,0,1.6-0.1,2.9-0.4s1.9-0.5,1.9-0.9c0-0.2-0.3-0.4-0.8-0.6s-1.1-0.5-1.8-0.6
		s-1.1-0.6-1.3-1.3s-0.5-1.1-0.7-1.1C2087.7,57.5,2087.4,57.9,2087.3,58.6z"/>
	<path class="st1" d="M2099.6,66.3h4c1.6,0,2.5,0,2.7,0s1.1,0.3,2.8,0.7c0.1-0.2,0.1-0.3,0.2-0.5s0.1-0.4,0.1-0.7
		c0-0.4-0.1-0.8-0.2-1s-0.3-0.4-0.4-0.6s-0.6-0.3-1.6-0.3c-0.8,0-1.5-0.3-2.1-1s-0.8-1.4-0.8-2.2c0-0.9,0.4-1.7,1.1-2.6
		s1.8-1.3,3.1-1.3c1,0,2.1,0.9,3.3,2.6s1.8,4,1.8,6.6c0,1.9-0.3,3.5-1,5s-1.5,2.1-2.5,2.1c-0.5-0.2-1.2-0.4-2.1-0.7
		s-2.6-0.4-5.2-0.4h-3.3V66.3z M2101.8,81.2c0-0.7,0.3-1.3,0.9-2s1.4-0.9,2.4-0.9c1,0,1.8,0.2,2.2,0.7s0.7,1.2,0.7,2.2
		c0,0.8-0.3,1.6-0.9,2.3s-1.4,1-2.5,1c-0.6,0-1.2-0.4-1.9-1.1S2101.8,82,2101.8,81.2z M2109.2,80.5c0-0.7,0.3-1.3,0.9-1.9
		s1.4-0.9,2.4-0.9c1.1,0,1.9,0.3,2.3,0.8s0.6,1.2,0.6,2.1c0,1.2-0.4,2-1.2,2.6s-1.7,0.8-2.6,0.8c-0.6-0.2-1.1-0.5-1.6-0.9
		S2109.2,81.7,2109.2,80.5z"/>
	<path class="st1" d="M2116.9,42.8c0-0.7,0.3-1.3,0.9-2s1.4-0.9,2.4-0.9c1,0,1.8,0.2,2.2,0.7s0.7,1.2,0.7,2.2c0,0.8-0.3,1.6-0.9,2.3
		s-1.4,1-2.5,1c-0.6,0-1.2-0.4-1.9-1.1S2116.9,43.7,2116.9,42.8z M2121.8,65.1c0-3.1,1.3-5.7,3.9-7.9s5.6-3.2,9.1-3.2
		c0.2,0,0.5,0,0.9,0.1s0.6,0.1,0.7,0.1c0-1.7-0.6-3.2-1.8-4.7s-1.8-2.5-1.8-3c0-1.2,0.4-2.3,1.1-3.1s1.7-1.2,2.9-1.2
		c1.5,0,2.6,0.3,3.2,1s0.9,1.5,0.9,2.5c0,0.5-0.1,1-0.2,1.4s-0.2,0.8-0.3,1c0.6,1.7,1.1,3.7,1.6,5.9s0.8,4.7,0.8,7.3
		c0,3.2-0.6,6.2-1.7,9.1s-3,5.1-5.6,6.7c0-0.2-0.1-0.5-0.1-0.9c0-0.6,0.2-1.5,0.7-2.7s0.7-2.1,0.8-2.8c-1.2,0.5-2.4,1-3.6,1.5
		s-2.4,0.7-3.7,0.7c-2.7,0-4.7-0.7-5.9-2.1S2121.8,67.5,2121.8,65.1z M2125.9,41.9c0-0.7,0.3-1.3,0.9-1.9s1.4-0.9,2.4-0.9
		c1.1,0,1.9,0.3,2.3,0.8s0.6,1.2,0.6,2.1c0,1.2-0.4,2-1.2,2.5s-1.7,0.8-2.6,0.8c-0.6-0.2-1.1-0.5-1.6-0.9S2125.9,43.1,2125.9,41.9z
		 M2128.1,65.7c0.2,0.8,0.6,1.3,1.2,1.7s1.4,0.6,2.3,0.6c1,0,2-0.2,3.1-0.7s1.8-1,2.3-1.7s0.8-1.3,0.9-1.9s0.2-1.4,0.2-2.2
		c-0.1-1.4-0.4-2.3-0.8-2.7s-0.9-0.5-1.4-0.5c-1,0-2.2,0.4-3.6,1.1s-2.4,1.5-2.9,2.4s-0.9,1.6-1.1,2.2S2128,65.1,2128.1,65.7z"/>
</g>
<rect x="5" y="112.2" class="st2" width="975.1" height="38"/>
<g>
	<rect x="3" y="14" class="st2" width="975.1" height="71"/>
	<path class="st4" d="M86.6,29.5c0-1.5,0.4-2.5,1.2-2.9c0.8-0.4,1.8-0.7,2.9-0.7c1.2,0,2.1,0.2,2.6,0.5s1,1.2,1.6,2.4
		c0.6-1.5,1.3-2.6,2-3.2c0.7-0.6,1.8-0.9,3.4-0.9c1,0,1.9,0.5,2.6,1.5c0.7,1,1.1,1.9,1.1,2.6c0,1-0.5,1.9-1.5,2.6
		c-1,0.7-2.1,1-3.4,1c-1.1,0-1.9-0.3-2.4-0.8c-0.5-0.7-0.9-1.2-1.2-1.6c-1.4,1.8-2.4,2.8-3.1,3.1c-0.7,0.3-1.4,0.5-2.3,0.5
		c-0.9,0-1.7-0.4-2.5-1.1C87,31.8,86.6,30.8,86.6,29.5z M116.5,70.4l1.3,0.1c-0.2,0-0.6,0-1.2,0c-0.5,0-1.3,0-2.1,0
		c-2.5,0-4.5,0.8-6,2.4s-3.9,2.4-7.2,2.4c0.2-0.6,0.8-1.4,1.8-2.5s1.7-1.8,1.9-2.3c-0.4,0-0.8-0.1-1.3-0.1c-0.5,0-0.8,0-1.1,0
		c-1.9,0-3,0-3.4,0c-0.4,0-0.8,0.1-1.1,0.2c-2-0.3-3.9-1-5.8-2.2c-1.9-1.1-2.9-3.9-2.9-8.3c0-4.1,1.6-7,4.7-8.8c3.7-1,7.3-2,11-3
		c0.2-0.5,0.2-1.2,0-2.1c-0.2-1-0.5-1.7-0.8-2.3c-0.3-0.6-1-1.3-2.3-2.1c-1.3-0.8-1.9-1.6-1.9-2.3c0-1.9,0.5-3.1,1.5-3.6
		c1-0.5,2.3-0.8,3.8-0.8c1.7,0,3.2,0.7,4.3,2.2c1.2,1.5,1.7,3.4,1.7,5.8c0,1.6,0,3.1-0.1,4.7c0,1.6-0.1,3.2-0.1,4.9
		c0,1.6,0,3.3,0,4.9c0.1,2.5,0.3,4.4,0.6,5.7h4.3V70.4z M97,61.2c0,0.7,0.4,1.2,1.2,1.4c0.8,0.2,1.7,0.4,2.9,0.4
		c1.1,0,1.9-0.1,2.2-0.1c2.1,0,3.2-0.8,3.2-2.4l-0.1-1.3l-0.4-3.5c0-0.9-0.5-1.4-1.6-1.4c-0.9,0-2,0.3-3.2,0.8
		c-1.2,0.5-2.1,1-2.7,1.5c-0.5,0.5-0.9,1.1-1.2,1.9S97,60.3,97,61.2z"/>
	<path class="st4" d="M137.5,70.4h-7.4c-0.4,0.1-0.8,0.2-1.1,0.2c-0.6,0-1.2-0.6-2-1.7c-0.8-1.1-1.5-2-2.1-2.5
		c-0.7,1.3-1.3,2.3-1.7,3c-0.4,0.7-1,1-1.9,1h-6.9v-7.2h3.6c3.9,0,6.1-1.1,6.6-3.3c0.5-2.2,1.5-3.3,2.9-3.3c0.2,0,1,1.1,2.4,3.3
		c1.4,2.2,3.1,3.3,5.1,3.3h2.4V70.4z M117.3,80.5c0-0.9,0.4-1.7,1.2-2.4c0.8-0.8,1.8-1.2,3-1.2c1.3,0,2.2,0.3,2.8,0.9
		c0.5,0.6,0.8,1.5,0.8,2.7c0,1-0.4,2-1.1,2.9c-0.7,0.9-1.8,1.3-3.1,1.3c-0.7,0-1.5-0.5-2.3-1.4C117.7,82.5,117.3,81.5,117.3,80.5z
		 M127.4,80.3c0-0.9,0.4-1.7,1.2-2.4c0.8-0.8,1.8-1.2,3-1.2c1.4,0,2.4,0.3,2.9,1c0.5,0.7,0.8,1.5,0.8,2.6c0,1.4-0.5,2.5-1.5,3.2
		c-1,0.7-2.1,1-3.3,1c-0.7-0.3-1.4-0.7-2-1.2C127.7,82.8,127.4,81.8,127.4,80.3z"/>
	<path class="st4" d="M162,70.4h-6c-0.8,0-1.8-0.2-2.9-0.7c-1.1-0.5-1.8-0.7-2.1-0.6c-1.2,0.4-2.4,0.7-3.5,1s-2.1,0.3-3.1,0.3h-2.2
		h-6.5v-7.2h7.4c-0.4,0-0.9-0.8-1.4-2.4c-0.5-1.6-0.7-3.2-0.7-4.7c0-2.6,0.8-4.6,2.4-6c1.6-1.4,3.6-2.1,6-2.1c2.8,0,5,1.1,6.8,3.3
		s2.7,4.6,2.7,7.3c0,0.5-0.1,1-0.3,1.7c-0.1,0.6-0.4,1.6-1,2.9h4.4V70.4z M144.2,39.3c0,1.2-0.4,2.2-1.2,2.7
		c-0.8,0.6-1.7,0.9-2.9,0.9c-0.9,0-1.6-0.3-2.2-1c-0.6-0.6-0.9-1.5-0.9-2.6c0-1.1,0.4-2.1,1.3-2.8s1.6-1.1,2.3-1.1
		c1.4,0,2.4,0.4,2.9,1.2C144,37.2,144.2,38.2,144.2,39.3z M153.4,39.3c0,1.2-0.4,2.1-1.1,2.7c-0.7,0.6-1.6,0.9-2.6,0.9
		c-2.9,0-4.3-1-4.3-3.1c0-1.3,0.4-2.5,1.3-3.4c0.9-0.9,2-1.4,3.5-1.4c0.7,0.3,1.4,0.8,2.1,1.3C153,36.8,153.4,37.8,153.4,39.3z
		 M147.9,58.4c0.1,0.8,0.4,1.4,0.7,2.1c0.3,0.6,0.7,0.9,1.2,0.9c0.3,0,0.7-0.2,1.1-0.7c0.4-0.5,0.8-1,1-1.5c0.2-0.5,0.3-1.1,0.2-1.7
		c-0.1-0.8-0.4-1.4-0.7-2s-1-0.8-2-0.7c-0.8,0.1-1.3,0.3-1.5,0.7c-0.2,0.4-0.3,0.8-0.3,1.2C147.6,57,147.7,57.6,147.9,58.4z"/>
	<path class="st4" d="M183,70.4h-7.4c-0.4,0.1-0.8,0.2-1.1,0.2c-0.6,0-1.2-0.6-2-1.7c-0.8-1.1-1.5-2-2.1-2.5c-0.7,1.3-1.3,2.3-1.7,3
		c-0.4,0.7-1,1-1.9,1h-6.9v-7.2h3.6c3.9,0,6.1-1.1,6.6-3.3c0.5-2.2,1.5-3.3,2.9-3.3c0.2,0,1,1.1,2.4,3.3c1.4,2.2,3.1,3.3,5.1,3.3
		h2.4V70.4z M162.7,80.5c0-0.9,0.4-1.7,1.2-2.4c0.8-0.8,1.8-1.2,3-1.2c1.3,0,2.2,0.3,2.8,0.9c0.5,0.6,0.8,1.5,0.8,2.7
		c0,1-0.4,2-1.1,2.9c-0.7,0.9-1.8,1.3-3.1,1.3c-0.7,0-1.5-0.5-2.3-1.4C163.1,82.5,162.7,81.5,162.7,80.5z M172.8,80.3
		c0-0.9,0.4-1.7,1.2-2.4c0.8-0.8,1.8-1.2,3-1.2c1.4,0,2.4,0.3,2.9,1c0.5,0.7,0.8,1.5,0.8,2.6c0,1.4-0.5,2.5-1.5,3.2
		c-1,0.7-2.1,1-3.3,1c-0.7-0.3-1.4-0.7-2-1.2C173.1,82.8,172.8,81.8,172.8,80.3z"/>
	<path class="st4" d="M204.2,70.4h-7.4c-0.4,0.1-0.8,0.2-1.1,0.2c-0.6,0-1.2-0.6-2-1.7c-0.8-1.1-1.5-2-2.1-2.5
		c-0.7,1.3-1.3,2.3-1.7,3c-0.4,0.7-1,1-1.9,1h-6.9v-7.2h3.6c3.9,0,6.1-1.1,6.6-3.3c0.5-2.2,1.5-3.3,2.9-3.3c0.2,0,1,1.1,2.4,3.3
		c1.4,2.2,3.1,3.3,5.1,3.3h2.4V70.4z M187.5,79.3c0-0.9,0.4-1.7,1.2-2.4c0.8-0.8,1.8-1.2,3-1.2c1.3,0,2.2,0.3,2.8,0.9
		c0.5,0.6,0.8,1.5,0.8,2.7c0,1-0.4,2-1.1,2.9c-0.7,0.9-1.8,1.3-3.1,1.3c-0.7,0-1.5-0.5-2.3-1.4C187.9,81.2,187.5,80.3,187.5,79.3z"
		/>
	<path class="st4" d="M257,70.4h-6c-0.4,0-1-0.2-2.1-0.7c-1-0.5-2-0.7-3.1-0.7c-1,0-2,0.2-2.9,0.7c-0.9,0.5-4.1,0.7-9.5,0.7
		c-1.7,0-3.5,0-5.2,0c-1.7,0-3.4,0-5.1,0.1c-0.8,0-2.1-0.2-3.8-0.5c-1.7-0.3-3.6-0.5-5.8-0.5c-0.9,0-1.4,0.1-1.8,0.3
		c-0.3,0.2-0.6,0.7-0.8,1.4c-0.2,0.7-0.5,1.2-1,1.6c-0.5,0.4-1,0.7-1.5,0.8c-0.5,0.1-0.9,0.1-1.3,0.1c-1.4,0-2.1-0.5-2.2-1.6
		c-0.1-1.1-0.2-1.7-0.3-2c-0.1-0.3-0.3-0.4-0.7-0.4c-0.5,0-0.9,0.1-1.2,0.3c-0.4,0.2-0.6,0.3-0.8,0.4v-7.2l6-0.1
		c3.7-3.9,7.4-7.9,11.1-11.8c4.4-3.1,9.3-4.6,14.8-4.6c1-3,1.7-5.3,2.1-6.9c0.4-1.6,0.7-3.4,1-5.3c0.3-1.9,0.4-3.1,0.4-3.7
		c0-1-0.2-1.9-0.6-2.8c-0.4-0.9-0.6-1.5-0.5-1.8c0.4-1.8,1.4-3.2,3.1-4.3c1.6-1.1,3.3-1.7,4.9-1.7c0.6,0,1.2,0.1,1.8,0.3
		c0.6,0.2,1.1,0.6,1.4,1.2c0.3,0.5,0.4,1.2,0.4,2c0,0.4,0,0.8-0.1,1.2c0,0.4-0.2,0.8-0.4,1.1c-1.1,1.2-2,2.4-2.7,3.5
		c-0.7,1.1-1.4,2.8-2.2,5.3c-0.7,2.5-1.3,4.6-1.7,6.4c-0.4,1.8-0.9,3.8-1.3,5.9c3.8,1,7,2.9,9.6,5.9c2.6,3,4.1,6.4,4.5,10.2h3.5
		V70.4z M230.9,53.7c-2.5,0-5,0.8-7.7,2.5c-2.7,1.7-4.9,3.9-6.7,6.6c1.3,0.3,2.6,0.6,3.7,0.8c1.1,0.2,3.2,0.2,6.3,0.2
		c3.6,0,7.2-0.1,10.7-0.2c3.5-0.2,6.3-0.5,8.4-1c-0.8-2-2-3.8-3.8-5.6c-1.8-1.8-3.8-2.7-6-2.7c-1.6,2.2-3.8,4.2-6.6,6
		c-2.8,1.7-6.1,2.6-9.9,2.6c3-1.8,5.3-3.2,7-4.2C228,57.5,229.5,55.9,230.9,53.7z"/>
	<path class="st4" d="M277.8,70.4h-7.4c-0.4,0.1-0.8,0.2-1.1,0.2c-0.6,0-1.2-0.6-2-1.7c-0.8-1.1-1.5-2-2.1-2.5
		c-0.7,1.3-1.3,2.3-1.7,3c-0.4,0.7-1,1-1.9,1h-6.9v-7.2h3.6c3.9,0,6.1-1.1,6.6-3.3c0.5-2.2,1.5-3.3,2.9-3.3c0.2,0,1,1.1,2.4,3.3
		c1.4,2.2,3.1,3.3,5.1,3.3h2.4V70.4z M257.6,41.6c0-0.9,0.4-1.7,1.2-2.5c0.8-0.8,1.8-1.2,3-1.2c1.3,0,2.2,0.3,2.8,0.9
		c0.5,0.6,0.8,1.5,0.8,2.7c0,1-0.4,2-1.1,2.9c-0.7,0.9-1.8,1.3-3.1,1.3c-0.7,0-1.5-0.4-2.3-1.3C258,43.6,257.6,42.6,257.6,41.6z
		 M267.4,41.6c0-0.9,0.4-1.7,1.2-2.5c0.8-0.8,1.8-1.2,3-1.2c1.4,0,2.4,0.3,2.9,1c0.5,0.7,0.7,1.6,0.7,2.6c0,1.4-0.5,2.5-1.5,3.2
		c-1,0.7-2.1,1-3.3,1c-0.7-0.2-1.4-0.6-2-1.2S267.4,43.1,267.4,41.6z"/>
	<path class="st4" d="M293,56.7c0,3.8-0.5,7.6-1.5,11.3c-1,3.7-3,5.6-5.8,5.6c-0.4,0-1.1-0.5-2.1-1.6c-1-1.1-1.8-1.6-2.5-1.6h-4.8
		v-7.2h6.6c0.6,0,1.3,0.2,1.8,0.6c0.6,0.4,1.1,0.7,1.4,0.9c0.1-2,0.3-4.2,0.4-6.6c0.1-2.4,0.2-4.7,0.2-6.8c0-2.5-0.2-4.7-0.7-6.7
		c-0.5-1.9-0.8-3.4-1-4.5c-0.2-1-1.1-2.8-2.5-5.2c-1.5-2.4-2.2-4.6-2.2-6.4c0-1.8,0.7-3.3,2-4.6c1.3-1.3,2.7-1.9,4.1-1.9
		c0.9,0,1.8,0.6,2.7,1.9c0.9,1.3,1.3,2.7,1.3,4.2c0,0.5-0.1,1.3-0.2,2.2c-0.1,0.9-0.2,1.6-0.1,1.9c0,2.5,0.3,5.3,0.8,8.4
		c0.5,3.1,0.9,5.2,1.1,6.3c0.2,1.1,0.4,2.6,0.6,4.5C292.9,53.3,293,55,293,56.7z"/>
	<path class="st4" d="M299.7,35.4c-0.2-1.3-0.6-2.3-1.2-2.9c-0.6-0.7-1.2-1.4-1.8-2.2c-0.2-2.2,0.4-4.2,2.1-6
		c1.6-1.8,3.3-2.7,5.1-2.7c1.3,0,2.2,0.6,2.7,1.7c0.5,1.1,0.7,2.1,0.6,2.9c-0.3,1.2-0.7,2.5-1.1,3.8c-0.4,1.3-0.6,2.8-0.6,4.4
		c0,3.2,0.3,7.4,1,12.5c0.7,5.1,1,8.9,1,11.5c0,2.1-1.2,5.1-3.7,9c-2.4,3.9-5.7,6.5-9.7,7.6c2.2-2.7,3.7-4.8,4.6-6.4
		s1.5-3.2,1.8-4.7s0.6-2.8,0.7-3.9c0.1-1.1,0.1-2.1,0.1-3.1c0-0.9,0-2.1-0.1-3.4c-0.1-1.4-0.2-2.7-0.3-3.8L299.7,35.4z"/>
	<path class="st4" d="M332.7,105.6c0-0.9,0.4-2.8,1.2-5.7s1.2-4.8,1.2-5.7c-0.6-2.1-1.2-5.3-1.6-9.8c-0.5-4.5-0.7-9.5-0.7-15
		c0-5.8,1.1-9,3.3-9.7s3.9-1.2,5.2-1.6c0.4-1.3,1.1-2.8,2.2-4.6c1.1-1.7,3.2-2.6,6.4-2.6c2.7,0,4.9,1.2,6.5,3.5
		c1.6,2.3,2.4,4.9,2.4,7.8c0,3-0.7,5.3-2.2,7c-1.4,1.7-3.4,2.5-5.9,2.5c-2.2,0-3.9-0.7-5.2-2c-1.3-1.3-2.3-2-3.1-2
		c-1.5,0-2.5,0.3-3.1,1c-0.6,0.7-0.9,2.2-0.9,4.5c0,0.9,0.1,2.8,0.3,5.7c0.2,3,0.4,5.4,0.5,7.3c0.2,1.9,0.3,3.6,0.5,5.2
		c0.2,1.6,0.3,2.7,0.3,3.4c0,1,0,1.7-0.1,2.2c0,0.5-0.3,1.6-0.7,3.2c-0.4,1.7-0.8,2.9-1.2,3.8s-1.1,1.6-2.3,2.3
		c-0.4,0.1-0.8,0.2-1.2,0.2C333.3,106.7,332.7,106.3,332.7,105.6z M347.8,62.7c0.5,0.9,1.2,1.3,2.2,1.3c0.3,0,0.6,0,0.9-0.1
		c0.3-0.1,0.6-0.4,0.8-0.9c0.2-0.5,0.3-1.1,0.3-1.7c0-0.9-0.3-1.5-0.9-2s-1.3-0.7-2.1-0.5c-1,0.2-1.6,1.1-1.6,2.5
		C347.4,61.8,347.5,62.3,347.8,62.7z"/>
	<path class="st4" d="M393.1,70.4h-3.8c-2.3,5-4.5,9-6.6,12.1c-2.1,3.1-4.8,5.6-8.1,7.5s-7.4,2.9-12.5,2.9c-2.1,0-3.8-0.3-5-0.8
		c-1.2-0.5-2.6-1.6-4.2-3.1s-2.9-3.3-3.8-5.3c-0.9-2-1.7-5.6-2.3-10.7l0.3-2.4c0.6,0.3,1.2,1.2,1.7,2.8c0.5,1.6,1.3,3.8,2.3,6.7
		c1.9,4.2,3.9,6.5,6.2,7c2.3,0.5,4.2,0.8,5.7,0.9c1.5,0,2.6,0.1,3.3,0.1c3.6,0,7.2-2,10.7-6c3.5-4,5.3-7.9,5.3-11.8
		c-3.9,0-6.6-0.8-8.2-2.4c-1.6-1.6-2.4-3.7-2.4-6.4c0-1.9,0.8-4.5,2.4-7.8c1.6-3.3,3.6-5,6.1-5c3.4,0,6,2.3,7.7,7
		c1.1,4.8,1.7,7.3,1.7,7.5h3.6V70.4z M378.8,58.9c-0.4,0.4-0.7,0.9-0.7,1.5c0,0.7,0.3,1.3,1,2c0.6,0.6,1.5,0.9,2.5,0.9
		c0.4,0,0.8,0,1.1-0.1c0.3-0.1,0.5-0.4,0.5-1.1c0-1.4-0.4-2.3-1.1-2.8c-0.7-0.5-1.4-0.8-2-0.8C379.6,58.5,379.2,58.6,378.8,58.9z"/>
	<path class="st4" d="M391.1,63.2h7.8c0.8-0.2,1.6-0.5,2.4-0.8c0.8-0.3,1.2-0.8,1.2-1.4c-0.6-4.6-1.1-9-1.6-13.3
		c-0.5-4.3-0.9-7.3-1.2-9.1s-1.2-3.6-2.6-5.4c-1.4-1.9-2.1-3.9-2.1-6.2c0-1.8,0.7-3.3,2-4.6c1.3-1.3,2.7-1.9,4.2-1.9
		c1,0,1.8,0.6,2.7,1.9c0.8,1.3,1.2,2.7,1.2,4.2c0,0.4,0,1.1-0.1,2.2c-0.1,1.1-0.1,1.8-0.1,2c0,2.4,0.3,5.2,0.9,8.3
		c0.6,3.1,1.1,5.7,1.4,7.8c0.3,2.1,0.5,5.2,0.7,9.4c0.2,4.2,0.4,6.4,0.6,6.7c0.2,0,0.5,0.1,1.1,0.1c0.5,0,1.1,0,1.7,0
		c0.8,0,1.3,0,1.5,0c0.2,0,0.5,0,0.8,0v7.2h-6.6c-0.4,1.5-1.4,3.2-2.8,5s-2.9,3-4.5,3.6c0-1,0.3-2.2,0.9-3.9c0.6-1.6,1-3.2,1.2-4.7
		h-10.5V63.2z"/>
	<path class="st4" d="M429.6,68.7c-1.2-1.1-2-1.7-2.3-1.7c-0.3,0-1.1,0.6-2.3,1.7c-1.2,1.1-1.9,1.7-2.2,1.7h-11.5v-7.2h7.3
		c1-0.1,1.7-0.3,2.2-0.6s1-0.6,1.7-1c-1.5-0.1-3-0.3-4.5-0.5c-2.2-0.4-3.3-1.4-3.3-2.9c0-1.6,0.6-2.8,1.9-3.6
		c1.3-0.8,2.8-1.7,4.7-2.6c0.9-0.6,1.9-1.7,3.2-3.2c1.3-1.6,2.4-2.4,3.3-2.4c1.3,0,2.6,0.8,3.8,2.4s2.2,2.7,3,3.2
		c1.3,0.8,2.6,1.5,4,2.3c1.4,1,2.2,2.3,2.2,4c0,1.6-0.8,2.5-2.4,2.8c-1.6,0.3-3.3,0.5-5.1,0.6c0.5,0.3,0.9,0.6,1.4,0.9
		c0.5,0.3,1.4,0.5,2.7,0.7h7.2v7.2h-12.6C431.5,70.4,430.8,69.8,429.6,68.7z M426.8,53.6c-0.2,0.9-0.6,1.5-1.2,1.6
		c-0.6,0.1-1.4,0.4-2.4,0.8c-1,0.4-1.5,0.7-1.5,1c0,0.4,0.6,0.7,1.8,0.9c1.2,0.2,2.6,0.4,4.1,0.5c0.8,0,2-0.1,3.6-0.4
		c1.6-0.3,2.4-0.7,2.4-1.1c0-0.2-0.3-0.5-1-0.8c-0.7-0.3-1.4-0.6-2.2-0.8c-0.8-0.2-1.3-0.7-1.6-1.6c-0.3-0.9-0.6-1.4-0.9-1.4
		C427.3,52.2,427,52.6,426.8,53.6z"/>
	<path class="st4" d="M442.2,63.2h7.8c0.8-0.2,1.6-0.5,2.4-0.8c0.8-0.3,1.2-0.8,1.2-1.4c-0.6-4.6-1.1-9-1.6-13.3
		c-0.5-4.3-0.9-7.3-1.2-9.1s-1.2-3.6-2.6-5.4c-1.4-1.9-2.1-3.9-2.1-6.2c0-1.8,0.7-3.3,2-4.6c1.3-1.3,2.7-1.9,4.2-1.9
		c1,0,1.8,0.6,2.7,1.9c0.8,1.3,1.2,2.7,1.2,4.2c0,0.4,0,1.1-0.1,2.2c-0.1,1.1-0.1,1.8-0.1,2c0,2.4,0.3,5.2,0.9,8.3
		c0.6,3.1,1.1,5.7,1.4,7.8c0.3,2.1,0.5,5.2,0.7,9.4c0.2,4.2,0.4,6.4,0.6,6.7c0.2,0,0.5,0.1,1.1,0.1c0.5,0,1.1,0,1.7,0
		c0.8,0,1.3,0,1.5,0c0.2,0,0.5,0,0.8,0v7.2h-6.6c-0.4,1.5-1.4,3.2-2.8,5s-2.9,3-4.5,3.6c0-1,0.3-2.2,0.9-3.9c0.6-1.6,1-3.2,1.2-4.7
		h-10.5V63.2z"/>
	<path class="st4" d="M478.9,56.7c0,3.8-0.5,7.6-1.5,11.3c-1,3.7-3,5.6-5.8,5.6c-0.4,0-1.1-0.5-2.1-1.6c-1-1.1-1.8-1.6-2.5-1.6h-4.8
		v-7.2h6.6c0.6,0,1.3,0.2,1.8,0.6c0.6,0.4,1.1,0.7,1.4,0.9c0.1-2,0.3-4.2,0.4-6.6c0.1-2.4,0.2-4.7,0.2-6.8c0-2.5-0.2-4.7-0.7-6.7
		c-0.5-1.9-0.8-3.4-1-4.5c-0.2-1-1.1-2.8-2.5-5.2c-1.5-2.4-2.2-4.6-2.2-6.4c0-1.8,0.7-3.3,2-4.6c1.3-1.3,2.7-1.9,4.1-1.9
		c0.9,0,1.8,0.6,2.7,1.9c0.9,1.3,1.3,2.7,1.3,4.2c0,0.5-0.1,1.3-0.2,2.2c-0.1,0.9-0.2,1.6-0.1,1.9c0,2.5,0.3,5.3,0.8,8.4
		c0.5,3.1,0.9,5.2,1.1,6.3c0.2,1.1,0.4,2.6,0.6,4.5C478.8,53.3,478.9,55,478.9,56.7z"/>
	<path class="st4" d="M498.1,29.5c0-1.5,0.4-2.5,1.2-2.9c0.8-0.4,1.8-0.7,2.9-0.7c1.2,0,2.1,0.2,2.6,0.5s1,1.2,1.6,2.4
		c0.6-1.5,1.3-2.6,2-3.2c0.7-0.6,1.8-0.9,3.4-0.9c1,0,1.9,0.5,2.6,1.5s1.1,1.9,1.1,2.6c0,1-0.5,1.9-1.5,2.6c-1,0.7-2.1,1-3.4,1
		c-1.1,0-1.9-0.3-2.4-0.8c-0.5-0.7-0.9-1.2-1.2-1.6c-1.4,1.8-2.4,2.8-3.1,3.1c-0.7,0.3-1.4,0.5-2.3,0.5c-0.9,0-1.7-0.4-2.5-1.1
		C498.4,31.8,498.1,30.8,498.1,29.5z M528,70.4l1.3,0.1c-0.2,0-0.6,0-1.2,0c-0.5,0-1.3,0-2.1,0c-2.5,0-4.5,0.8-6,2.4
		s-3.9,2.4-7.2,2.4c0.2-0.6,0.8-1.4,1.8-2.5s1.7-1.8,1.9-2.3c-0.4,0-0.8-0.1-1.3-0.1c-0.5,0-0.8,0-1.1,0c-1.9,0-3,0-3.4,0
		c-0.4,0-0.8,0.1-1.1,0.2c-2-0.3-3.9-1-5.8-2.2c-1.9-1.1-2.9-3.9-2.9-8.3c0-4.1,1.6-7,4.7-8.8c3.7-1,7.3-2,11-3
		c0.2-0.5,0.2-1.2,0-2.1c-0.2-1-0.5-1.7-0.8-2.3s-1-1.3-2.3-2.1c-1.3-0.8-1.9-1.6-1.9-2.3c0-1.9,0.5-3.1,1.5-3.6
		c1-0.5,2.3-0.8,3.8-0.8c1.7,0,3.2,0.7,4.3,2.2c1.2,1.5,1.7,3.4,1.7,5.8c0,1.6,0,3.1-0.1,4.7c0,1.6-0.1,3.2-0.1,4.9
		c0,1.6,0,3.3,0,4.9c0.1,2.5,0.3,4.4,0.6,5.7h4.3V70.4z M508.5,61.2c0,0.7,0.4,1.2,1.2,1.4c0.8,0.2,1.7,0.4,2.9,0.4
		c1.1,0,1.9-0.1,2.2-0.1c2.1,0,3.2-0.8,3.2-2.4l-0.1-1.3l-0.4-3.5c0-0.9-0.5-1.4-1.6-1.4c-0.9,0-2,0.3-3.2,0.8
		c-1.2,0.5-2.1,1-2.7,1.5c-0.5,0.5-0.9,1.1-1.2,1.9S508.5,60.3,508.5,61.2z"/>
	<path class="st4" d="M549,70.4h-7.4c-0.4,0.1-0.8,0.2-1.1,0.2c-0.6,0-1.2-0.6-2-1.7c-0.8-1.1-1.5-2-2.1-2.5c-0.7,1.3-1.3,2.3-1.7,3
		s-1,1-1.9,1h-6.9v-7.2h3.6c3.9,0,6.1-1.1,6.6-3.3c0.5-2.2,1.5-3.3,2.9-3.3c0.2,0,1,1.1,2.4,3.3c1.4,2.2,3.1,3.3,5.1,3.3h2.4V70.4z
		 M528.8,80.5c0-0.9,0.4-1.7,1.2-2.4c0.8-0.8,1.8-1.2,3-1.2c1.3,0,2.2,0.3,2.8,0.9c0.5,0.6,0.8,1.5,0.8,2.7c0,1-0.4,2-1.1,2.9
		c-0.7,0.9-1.8,1.3-3.1,1.3c-0.7,0-1.5-0.5-2.3-1.4C529.2,82.5,528.8,81.5,528.8,80.5z M538.8,80.3c0-0.9,0.4-1.7,1.2-2.4
		c0.8-0.8,1.8-1.2,3-1.2c1.4,0,2.4,0.3,2.9,1c0.5,0.7,0.8,1.5,0.8,2.6c0,1.4-0.5,2.5-1.5,3.2c-1,0.7-2.1,1-3.3,1
		c-0.7-0.3-1.4-0.7-2-1.2C539.2,82.8,538.8,81.8,538.8,80.3z"/>
	<path class="st4" d="M570.2,70.4h-7.4c-0.4,0.1-0.8,0.2-1.1,0.2c-0.6,0-1.2-0.6-2-1.7c-0.8-1.1-1.5-2-2.1-2.5
		c-0.7,1.3-1.3,2.3-1.7,3s-1,1-1.9,1h-6.9v-7.2h3.6c3.9,0,6.1-1.1,6.6-3.3c0.5-2.2,1.5-3.3,2.9-3.3c0.2,0,1,1.1,2.4,3.3
		c1.4,2.2,3.1,3.3,5.1,3.3h2.4V70.4z M550.8,43.3c0-0.9,0.4-1.7,1.2-2.5c0.8-0.8,1.8-1.2,3-1.2c2.4,0,3.6,1.2,3.6,3.6
		c0,1-0.4,1.9-1.1,2.8s-1.8,1.3-3.1,1.3c-0.7,0-1.5-0.4-2.3-1.3C551.2,45.3,550.8,44.3,550.8,43.3z"/>
	<path class="st4" d="M605.4,47.1c4.1,1,7.4,3.2,10.1,6.6s4,7.2,4,11.4c0,1.9-0.2,3.4-0.7,4.4s-1.1,1.5-1.8,1.5
		c-0.4,0-1.1-0.3-2.1-0.9c-1-0.6-2-0.9-3.1-0.9c-1.2,0-3,0.3-5.4,0.8c-2.4,0.5-4.8,0.8-7.2,0.8c-3.9,0-7.6-0.2-11.3-0.7
		c-3.6-0.5-6.5-0.7-8.7-0.7c-0.8,0-1.3,0.1-1.5,0.2c-0.2,0.1-0.4,0.5-0.6,1.2c-0.2,0.7-0.6,1.3-1.2,1.8c-0.6,0.5-1.1,0.8-1.6,0.9
		c-0.5,0.1-0.9,0.1-1.3,0.1c-1.4,0-2.1-0.5-2.2-1.6c-0.1-1.1-0.2-1.7-0.3-2c-0.1-0.3-0.3-0.4-0.7-0.4c-0.5,0-0.9,0.1-1.2,0.3
		c-0.4,0.2-0.6,0.3-0.8,0.4v-7.2h6c4.2-6,8.2-10.2,12-12.7c3.7-2.5,8.4-3.8,13.9-3.8c1.7-5.1,2.9-8.4,3.4-10.1
		c0.5-1.7,0.9-2.9,1-3.8c0.1-0.8,0.2-1.5,0.2-2.1c0-1-0.2-1.9-0.6-2.8c-0.4-0.9-0.6-1.5-0.5-1.8c0.4-1.8,1.4-3.2,3.1-4.3
		c1.6-1.1,3.3-1.7,5-1.7c0.6,0,1.2,0.1,1.8,0.3c0.6,0.2,1.1,0.6,1.3,1.2c0.3,0.5,0.4,1.2,0.4,2c0,0.4,0,0.8-0.1,1.2
		c0,0.4-0.2,0.8-0.4,1.1c-0.8,1-1.6,2-2.4,3.1c-0.8,1.1-1.7,3.1-2.8,5.9c-1.1,2.8-1.9,4.9-2.4,6.3C606.5,42.7,605.9,44.6,605.4,47.1
		z M596.9,53.7c-2.5,0-5,0.8-7.7,2.5c-2.7,1.7-4.9,3.9-6.7,6.6c1.3,0.3,2.6,0.6,3.7,0.8c1.1,0.2,3.2,0.2,6.3,0.2
		c2.9,0,6.3-0.2,10.1-0.5c3.8-0.4,6.8-0.9,9.1-1.5c-0.8-1.8-2.1-3.5-3.8-5.1c-1.7-1.6-3.7-2.4-5.9-2.4c-1.6,2.2-3.8,4.2-6.6,6
		c-2.8,1.7-6.1,2.6-9.9,2.6c3-1.8,5.3-3.2,7-4.2C594.1,57.5,595.6,55.9,596.9,53.7z"/>
	<path class="st4" d="M652.1,70.4h-3.8c-2.3,5-4.5,9-6.6,12.1c-2.1,3.1-4.8,5.6-8.1,7.5s-7.4,2.9-12.5,2.9c-2.1,0-3.8-0.3-5-0.8
		c-1.2-0.5-2.6-1.6-4.2-3.1s-2.9-3.3-3.8-5.3c-0.9-2-1.7-5.6-2.3-10.7l0.3-2.4c0.6,0.3,1.2,1.2,1.7,2.8c0.5,1.6,1.3,3.8,2.3,6.7
		c1.9,4.2,3.9,6.5,6.2,7c2.3,0.5,4.2,0.8,5.7,0.9c1.5,0,2.6,0.1,3.3,0.1c3.6,0,7.2-2,10.7-6c3.5-4,5.3-7.9,5.3-11.8
		c-3.9,0-6.6-0.8-8.2-2.4c-1.6-1.6-2.4-3.7-2.4-6.4c0-1.9,0.8-4.5,2.4-7.8c1.6-3.3,3.6-5,6.1-5c3.4,0,6,2.3,7.7,7
		c1.1,4.8,1.7,7.3,1.7,7.5h3.6V70.4z M637.8,58.9c-0.4,0.4-0.7,0.9-0.7,1.5c0,0.7,0.3,1.3,1,2c0.6,0.6,1.5,0.9,2.5,0.9
		c0.4,0,0.8,0,1.1-0.1s0.5-0.4,0.5-1.1c0-1.4-0.4-2.3-1.1-2.8c-0.7-0.5-1.4-0.8-2-0.8C638.6,58.5,638.2,58.6,637.8,58.9z"/>
	<path class="st4" d="M666.7,56.7c0,3.8-0.5,7.6-1.5,11.3c-1,3.7-3,5.6-5.8,5.6c-0.4,0-1.1-0.5-2.1-1.6c-1-1.1-1.8-1.6-2.5-1.6h-4.8
		v-7.2h6.6c0.6,0,1.3,0.2,1.8,0.6c0.6,0.4,1.1,0.7,1.4,0.9c0.1-2,0.3-4.2,0.4-6.6s0.2-4.7,0.2-6.8c0-2.5-0.2-4.7-0.7-6.7
		c-0.5-1.9-0.8-3.4-1-4.5c-0.2-1-1.1-2.8-2.5-5.2c-1.5-2.4-2.2-4.6-2.2-6.4c0-1.8,0.7-3.3,2-4.6c1.3-1.3,2.7-1.9,4.1-1.9
		c0.9,0,1.8,0.6,2.7,1.9c0.9,1.3,1.3,2.7,1.3,4.2c0,0.5-0.1,1.3-0.2,2.2c-0.1,0.9-0.2,1.6-0.1,1.9c0,2.5,0.3,5.3,0.8,8.4
		c0.5,3.1,0.9,5.2,1.1,6.3c0.2,1.1,0.4,2.6,0.6,4.5C666.6,53.3,666.7,55,666.7,56.7z"/>
	<path class="st4" d="M673.4,35.4c-0.2-1.3-0.6-2.3-1.2-2.9c-0.6-0.7-1.2-1.4-1.8-2.2c-0.2-2.2,0.4-4.2,2.1-6
		c1.6-1.8,3.3-2.7,5.1-2.7c1.3,0,2.2,0.6,2.7,1.7c0.5,1.1,0.7,2.1,0.6,2.9c-0.3,1.2-0.7,2.5-1.1,3.8c-0.4,1.3-0.6,2.8-0.6,4.4
		c0,3.2,0.3,7.4,1,12.5c0.7,5.1,1,8.9,1,11.5c0,2.1-1.2,5.1-3.7,9c-2.4,3.9-5.7,6.5-9.7,7.6c2.2-2.7,3.7-4.8,4.6-6.4
		s1.5-3.2,1.8-4.7s0.6-2.8,0.7-3.9c0.1-1.1,0.1-2.1,0.1-3.1c0-0.9,0-2.1-0.1-3.4s-0.2-2.7-0.3-3.8L673.4,35.4z"/>
	<path class="st4" d="M701.4,29.5c0-1.5,0.4-2.5,1.2-2.9c0.8-0.4,1.8-0.7,2.9-0.7c1.2,0,2.1,0.2,2.6,0.5s1,1.2,1.6,2.4
		c0.6-1.5,1.3-2.6,2-3.2c0.7-0.6,1.8-0.9,3.4-0.9c1,0,1.9,0.5,2.6,1.5s1.1,1.9,1.1,2.6c0,1-0.5,1.9-1.5,2.6c-1,0.7-2.1,1-3.4,1
		c-1.1,0-1.9-0.3-2.4-0.8c-0.5-0.7-0.9-1.2-1.2-1.6c-1.4,1.8-2.4,2.8-3.1,3.1c-0.7,0.3-1.4,0.5-2.3,0.5c-0.9,0-1.7-0.4-2.5-1.1
		C701.7,31.8,701.4,30.8,701.4,29.5z M731.3,70.4l1.3,0.1c-0.2,0-0.6,0-1.2,0c-0.5,0-1.3,0-2.1,0c-2.5,0-4.5,0.8-6,2.4
		s-3.9,2.4-7.2,2.4c0.2-0.6,0.8-1.4,1.8-2.5s1.7-1.8,1.9-2.3c-0.4,0-0.8-0.1-1.3-0.1c-0.5,0-0.8,0-1.1,0c-1.9,0-3,0-3.4,0
		c-0.4,0-0.8,0.1-1.1,0.2c-2-0.3-3.9-1-5.8-2.2c-1.9-1.1-2.9-3.9-2.9-8.3c0-4.1,1.6-7,4.7-8.8c3.7-1,7.3-2,11-3
		c0.2-0.5,0.2-1.2,0-2.1c-0.2-1-0.5-1.7-0.8-2.3s-1-1.3-2.3-2.1c-1.3-0.8-1.9-1.6-1.9-2.3c0-1.9,0.5-3.1,1.5-3.6
		c1-0.5,2.3-0.8,3.8-0.8c1.7,0,3.2,0.7,4.3,2.2c1.2,1.5,1.7,3.4,1.7,5.8c0,1.6,0,3.1-0.1,4.7c0,1.6-0.1,3.2-0.1,4.9
		c0,1.6,0,3.3,0,4.9c0.1,2.5,0.3,4.4,0.6,5.7h4.3V70.4z M711.8,61.2c0,0.7,0.4,1.2,1.2,1.4c0.8,0.2,1.7,0.4,2.9,0.4
		c1.1,0,1.9-0.1,2.2-0.1c2.1,0,3.2-0.8,3.2-2.4l-0.1-1.3l-0.4-3.5c0-0.9-0.5-1.4-1.6-1.4c-0.9,0-2,0.3-3.2,0.8
		c-1.2,0.5-2.1,1-2.7,1.5c-0.5,0.5-0.9,1.1-1.2,1.9S711.8,60.3,711.8,61.2z"/>
	<path class="st4" d="M753.3,71.1c-0.5,0.1-1.2-0.5-2.1-1.6s-1.6-2-2-2.3c-0.3,0.2-0.9,0.8-1.8,1.7c-0.9,0.9-1.9,1.6-3.1,2.1
		c0,0-0.7-0.6-1.9-1.9c-1.2-1.3-2.1-1.9-2.5-1.9c-0.6,0-1.2,0.5-1.9,1.6c-0.7,1-1.3,1.6-1.6,1.7h-7.3v-7.2h1.9
		c3.7,0,5.9-1.1,6.6-3.3c0.8-2.2,1.8-3.2,3-3c0.5,0.1,1.1,0.9,1.9,2.5c0.8,1.6,1.5,2.8,2.2,3.7c0.4-0.3,1-1.4,1.9-3.1
		c0.9-1.7,1.7-2.5,2.3-2.5c1,1.9,2,3.4,2.9,4.7c1,1.3,2,1.8,3.1,1.5c0.5-0.1,0.8-0.5,0.9-1.2c0.1-0.7,0.2-1.2,0.2-1.5
		c0-0.3,0-0.6,0-0.8s0-0.4-0.1-0.6c0-0.8-0.1-1.2-0.4-1.4s-1-0.2-2.2-0.2c-1,0-1.9-0.4-2.7-1.2c-0.8-0.8-1.2-1.6-1.2-2.4
		c0-1,0.6-2.1,1.7-3.3c1.1-1.2,2.4-1.8,4-1.8c1,0,2.3,1.2,3.9,3.7c1.6,2.5,2.5,4.7,2.5,6.8c0,0.4,0.1,0.8,0.1,1.1
		c0,2.1-0.5,4.2-1.6,6.2C758.8,69.2,756.6,70.5,753.3,71.1z"/>
	<path class="st4" d="M757.8,91.1c-6.6,0-13-2-19-6.1c-6.1-4.1-9.4-9.2-10.2-15.2l1.2,1c2.9,4.8,6.4,8.6,10.5,11.4s9.3,4.2,15.8,4.2
		c3.4,0,6.7-0.4,9.9-1.2c3.2-0.8,5.8-1.9,7.9-3.4c2.1-1.5,4.5-4,7.2-7.7c2.7-3.7,4-7.6,4-11.7c0-0.7,0-1.3-0.1-1.8
		c0-0.5-1.2-1.2-3.6-2.1s-3.5-2.6-3.5-4.9c0-3.7,1.4-5.5,4.3-5.5c2.3,0,4.3,1.4,6,4.1c1.7,2.7,2.5,6,2.5,9.6c0,3.9-1.3,8.1-3.8,12.6
		c-2.6,4.5-4.9,7.7-6.9,9.5c-2.9,2.1-6.2,3.9-9.9,5.3C766.6,90.4,762.4,91.1,757.8,91.1z"/>
	<path class="st4" d="M834.4,70.4h-3.7c-0.9,0-2-0.3-3.3-0.8s-2-0.8-2.2-0.8c-0.1,0-0.5,0.3-1.1,0.8c-0.6,0.5-1.7,0.8-3.3,0.8
		c-0.9,0-2.2-0.2-3.8-0.5c-1.6-0.3-3-0.5-4-0.5c-2.9,0-5.5,0.9-7.7,2.8c-2,2.3-3.9,4.6-5.8,6.9c-0.2-0.8-0.2-1.3,0-1.5
		c0-2.8,1.2-5.5,3.5-8.1c2.4-2.6,4.5-4.2,6.5-4.9c2-0.7,3.7-1.1,5.1-1.3c1.4-0.2,2.4-0.4,2.8-0.5c-2.8-1.6-5.2-3.1-7.1-4.4
		c-1.9-1.4-2.9-3.5-2.9-6.4c0-1.9,0.6-3.5,1.7-4.8c1.1-1.3,2.6-2,4.5-2c1.2,0,2.2,0.5,2.8,1.4c0.6,1,1,1.8,1,2.5
		c0,1.6-0.7,2.5-2.1,2.7s-2.1,0.5-2.1,1c0,1.2,2.1,2.3,6.4,3.4s6.9,3.2,8,6.4c1.3,0.4,3.1,0.7,5.3,0.7h1.4V70.4z"/>
	<path class="st4" d="M832.7,63.2h6.3c0.7-2.1,1.6-4.1,2.8-5.7s3-2.5,5.2-2.5c3.2,0,5.5,1.4,7,4.1c1.5,2.7,2.5,4.1,2.9,4.1h4.8v7.2
		H857c-0.7,0-1.6,1.1-3,3.2s-3.3,3.2-5.8,3.2c-2.8,0-4.9-1.1-6.3-3.2c-1.4-2.1-2.2-3.2-2.5-3.2c-0.2,0-0.6-0.1-1.2-0.1
		c-0.6,0-1.1,0-1.4,0c-0.9,0-1.7,0-2.3,0c-0.6,0-1.2,0-1.7,0.1V63.2z M845.3,66.7c0.4,2.1,1.2,3.1,2.6,3.1c0.9,0,1.4-0.4,1.6-1.1
		s0.4-1.7,0.4-2.9c-0.1-1-0.4-1.9-0.8-2.7c-0.4-0.7-1-1.1-1.9-1.1c-0.7,0-1.2,0.3-1.6,1c-0.4,0.7-0.6,1.5-0.6,2.5
		C845.1,65.8,845.2,66.1,845.3,66.7z"/>
	<path class="st4" d="M876.4,56.7c0,3.8-0.5,7.6-1.5,11.3c-1,3.7-3,5.6-5.8,5.6c-0.4,0-1.1-0.5-2.1-1.6c-1-1.1-1.8-1.6-2.5-1.6h-4.8
		v-7.2h6.6c0.6,0,1.3,0.2,1.8,0.6c0.6,0.4,1.1,0.7,1.4,0.9c0.1-2,0.3-4.2,0.4-6.6s0.2-4.7,0.2-6.8c0-2.5-0.2-4.7-0.7-6.7
		c-0.5-1.9-0.8-3.4-1-4.5c-0.2-1-1.1-2.8-2.5-5.2c-1.5-2.4-2.2-4.6-2.2-6.4c0-1.8,0.7-3.3,2-4.6c1.3-1.3,2.7-1.9,4.1-1.9
		c0.9,0,1.8,0.6,2.7,1.9c0.9,1.3,1.3,2.7,1.3,4.2c0,0.5-0.1,1.3-0.2,2.2c-0.1,0.9-0.2,1.6-0.1,1.9c0,2.5,0.3,5.3,0.8,8.4
		c0.5,3.1,0.9,5.2,1.1,6.3c0.2,1.1,0.4,2.6,0.6,4.5C876.3,53.3,876.4,55,876.4,56.7z"/>
	<path class="st4" d="M883.1,35.4c-0.2-1.3-0.6-2.3-1.2-2.9c-0.6-0.7-1.2-1.4-1.8-2.2c-0.2-2.2,0.4-4.2,2.1-6
		c1.6-1.8,3.3-2.7,5.1-2.7c1.3,0,2.2,0.6,2.7,1.7c0.5,1.1,0.7,2.1,0.6,2.9c-0.3,1.2-0.7,2.5-1.1,3.8c-0.4,1.3-0.6,2.8-0.6,4.4
		c0,3.2,0.3,7.4,1,12.5c0.7,5.1,1,8.9,1,11.5c0,2.1-1.2,5.1-3.7,9c-2.4,3.9-5.7,6.5-9.7,7.6c2.2-2.7,3.7-4.8,4.6-6.4
		s1.5-3.2,1.8-4.7s0.6-2.8,0.7-3.9c0.1-1.1,0.1-2.1,0.1-3.1c0-0.9,0-2.1-0.1-3.4s-0.2-2.7-0.3-3.8L883.1,35.4z"/>
</g>
<g>
	<rect y="179.9" class="st2" width="980.1" height="48.9"/>
	<path class="st5" d="M173.4,199.2h-6.4V211h-3.6v-11.9h-6.5v-3.6h6.5v-11.9h3.6v11.9h6.4V199.2z"/>
	<path class="st5" d="M184.1,203l12,4.9v3.6l-18.5-7.5l8.6-7.3l-8.3-7.2l18.2-6.9v3.6l-11.4,4.3l6.6,5.8L184.1,203z"/>
	<path class="st5" d="M203.1,211h-3.6v-27.3h3.6V211z"/>
	<path class="st5" d="M227.8,211h-20.2v-27.3h20.2v3.6h-16.6v20h16.6V211z"/>
	<path class="st5" d="M246,211h-3.7v-16.5l-4.4,6.9c-0.7,1.3-1.1,2.9-1.3,4.9c-0.2,1.4-0.3,2.9-0.3,4.7h-3.6v-27.3h3.6V199
		c4.1-6.7,6.1-11.3,6-13.6v-0.8c0-0.3,0-0.6,0-0.9h3.7V211z"/>
	<path class="st5" d="M282.2,199.2h-6.4V211h-3.6v-11.9h-6.5v-3.6h6.5v-11.9h3.6v11.9h6.4V199.2z"/>
	<path class="st5" d="M292.8,198.4c1.8,0,3.3,0.6,4.5,1.8c1.2,1.2,1.8,2.7,1.8,4.5c0,1.8-0.6,3.3-1.8,4.5c-1.2,1.2-2.7,1.8-4.5,1.8
		c-1.8,0-3.2-0.6-4.4-1.8c-1.2-1.2-1.8-2.7-1.8-4.5c0-1.8,0.6-3.3,1.8-4.5C289.6,199,291,198.4,292.8,198.4z M296.2,204.7
		c0-1-0.3-1.8-1-2.5c-0.7-0.7-1.5-1-2.4-1c-0.9,0-1.7,0.3-2.4,1c-0.7,0.7-1,1.5-1,2.5c0,1,0.3,1.8,1,2.5c0.7,0.7,1.4,1,2.4,1
		c1,0,1.8-0.3,2.4-1C295.9,206.5,296.2,205.7,296.2,204.7z"/>
	<path class="st5" d="M322.4,211h-20.2v-27.3h20.2v3.6h-16.6v20h16.6V211z"/>
	<path class="st5" d="M333.5,198.4c1.8,0,3.3,0.6,4.5,1.8c1.2,1.2,1.8,2.7,1.8,4.5c0,1.8-0.6,3.3-1.8,4.5c-1.2,1.2-2.7,1.8-4.5,1.8
		c-1.8,0-3.2-0.6-4.4-1.8c-1.2-1.2-1.8-2.7-1.8-4.5c0-1.8,0.6-3.3,1.8-4.5C330.2,199,331.7,198.4,333.5,198.4z M336.9,204.7
		c0-1-0.3-1.8-1-2.5c-0.7-0.7-1.5-1-2.4-1c-0.9,0-1.7,0.3-2.4,1c-0.7,0.7-1,1.5-1,2.5c0,1,0.3,1.8,1,2.5c0.7,0.7,1.4,1,2.4,1
		c1,0,1.8-0.3,2.4-1C336.5,206.5,336.9,205.7,336.9,204.7z"/>
	<path class="st5" d="M359.4,199.2H353V211h-3.6v-11.9h-6.5v-3.6h6.5v-11.9h3.6v11.9h6.4V199.2z"/>
	<path class="st5" d="M380.5,199.2h-6.4V211h-3.6v-11.9H364v-3.6h6.5v-11.9h3.6v11.9h6.4V199.2z"/>
	<path class="st5" d="M391.1,198.4c1.8,0,3.3,0.6,4.5,1.8c1.2,1.2,1.8,2.7,1.8,4.5c0,1.8-0.6,3.3-1.8,4.5c-1.2,1.2-2.7,1.8-4.5,1.8
		c-1.8,0-3.2-0.6-4.4-1.8c-1.2-1.2-1.8-2.7-1.8-4.5c0-1.8,0.6-3.3,1.8-4.5C387.9,199,389.3,198.4,391.1,198.4z M394.5,204.7
		c0-1-0.3-1.8-1-2.5c-0.7-0.7-1.5-1-2.4-1c-0.9,0-1.7,0.3-2.4,1c-0.7,0.7-1,1.5-1,2.5c0,1,0.3,1.8,1,2.5c0.7,0.7,1.4,1,2.4,1
		c1,0,1.8-0.3,2.4-1C394.2,206.5,394.5,205.7,394.5,204.7z"/>
	<path class="st5" d="M399.7,211l11.8-12.6l-7.8-7.8l18.1-7v3.7l-11.2,4.3l6.4,6.4L404.9,211H399.7z"/>
	<path class="st5" d="M441.3,199.2h-6.4V211h-3.6v-11.9h-6.5v-3.6h6.5v-11.9h3.6v11.9h6.4V199.2z"/>
	<path class="st5" d="M464.1,211h-3.6v-27.3h3.6V211z"/>
	<path class="st5" d="M499.9,199.2h-6.4V211h-3.6v-11.9h-6.5v-3.6h6.5v-11.9h3.6v11.9h6.4V199.2z"/>
	<path class="st5" d="M510.5,198.4c1.8,0,3.3,0.6,4.5,1.8c1.2,1.2,1.8,2.7,1.8,4.5c0,1.8-0.6,3.3-1.8,4.5c-1.2,1.2-2.7,1.8-4.5,1.8
		c-1.8,0-3.2-0.6-4.4-1.8c-1.2-1.2-1.8-2.7-1.8-4.5c0-1.8,0.6-3.3,1.8-4.5C507.3,199,508.7,198.4,510.5,198.4z M513.9,204.7
		c0-1-0.3-1.8-1-2.5s-1.5-1-2.4-1c-0.9,0-1.7,0.3-2.4,1c-0.7,0.7-1,1.5-1,2.5c0,1,0.3,1.8,1,2.5c0.7,0.7,1.4,1,2.4,1
		c1,0,1.8-0.3,2.4-1S513.9,205.7,513.9,204.7z"/>
	<path class="st5" d="M536.5,199.2H530V211h-3.6v-11.9h-6.5v-3.6h6.5v-11.9h3.6v11.9h6.4V199.2z"/>
	<path class="st5" d="M547.2,203l12,4.9v3.6l-18.5-7.5l8.6-7.3l-8.3-7.2l18.2-6.9v3.6l-11.4,4.3l6.6,5.8L547.2,203z"/>
	<path class="st5" d="M582.7,183.8l-7.7,13.3l7.7,13.9h-3.9l-5.9-10.2l-5.9,10.2h-4.2v-27.3H582.7z M576.9,187.3h-10.5v18.2
		L576.9,187.3z"/>
	<path class="st5" d="M589.8,211h-3.6v-27.3h3.6V211z"/>
	<path class="st5" d="M600.3,199.2c1.8,0,3.3,0.6,4.5,1.7c1.2,1.1,1.8,2.5,1.8,4.2c0,1.6-0.6,3-1.8,4.2c-1.2,1.1-2.7,1.7-4.5,1.7
		c-1.8,0-3.2-0.6-4.4-1.7c-1.2-1.1-1.8-2.5-1.8-4.2c0-1.7,0.6-3.1,1.8-4.2C597,199.8,598.5,199.2,600.3,199.2z M600.4,183.8
		c1.8,0,3.3,0.6,4.5,1.7c1.2,1.1,1.8,2.5,1.8,4.2c0,1.6-0.6,3-1.8,4.2c-1.2,1.1-2.7,1.7-4.5,1.7c-1.7,0-3.2-0.6-4.4-1.7
		c-1.2-1.1-1.8-2.5-1.8-4.2c0-1.7,0.6-3.1,1.8-4.2C597.2,184.3,598.7,183.8,600.4,183.8z M603.8,205.1c0-1-0.3-1.8-1-2.5
		c-0.7-0.7-1.5-1-2.5-1c-1,0-1.8,0.3-2.5,1c-0.7,0.7-1,1.5-1,2.5c0,1,0.3,1.8,1,2.5s1.5,1,2.5,1c1,0,1.9-0.3,2.5-1
		C603.5,206.9,603.8,206.1,603.8,205.1z M604,189.7c0-1-0.3-1.8-1-2.5s-1.5-1-2.5-1c-1,0-1.8,0.3-2.5,1c-0.7,0.7-1,1.5-1,2.5
		c0,1,0.3,1.8,1,2.5c0.7,0.7,1.5,1,2.5,1c1,0,1.9-0.3,2.5-1S604,190.6,604,189.7z"/>
	<path class="st5" d="M623.6,211h-3.7v-16.5l-4.4,6.9c-0.7,1.3-1.1,2.9-1.3,4.9c-0.2,1.4-0.3,2.9-0.3,4.7h-3.6v-27.3h3.6V199
		c4.1-6.7,6.1-11.3,6-13.6v-0.8c0-0.3,0-0.6,0-0.9h3.7V211z"/>
	<path class="st5" d="M634.5,199.2c1.8,0,3.3,0.6,4.5,1.7c1.2,1.1,1.8,2.5,1.8,4.2c0,1.6-0.6,3-1.8,4.2c-1.2,1.1-2.7,1.7-4.5,1.7
		c-1.8,0-3.2-0.6-4.4-1.7c-1.2-1.1-1.8-2.5-1.8-4.2c0-1.7,0.6-3.1,1.8-4.2C631.3,199.8,632.7,199.2,634.5,199.2z M634.6,183.8
		c1.8,0,3.3,0.6,4.5,1.7c1.2,1.1,1.8,2.5,1.8,4.2c0,1.6-0.6,3-1.8,4.2s-2.7,1.7-4.5,1.7c-1.7,0-3.2-0.6-4.4-1.7s-1.8-2.5-1.8-4.2
		c0-1.7,0.6-3.1,1.8-4.2C631.4,184.3,632.9,183.8,634.6,183.8z M638.1,205.1c0-1-0.3-1.8-1-2.5c-0.7-0.7-1.5-1-2.5-1
		c-1,0-1.8,0.3-2.5,1c-0.7,0.7-1,1.5-1,2.5c0,1,0.3,1.8,1,2.5c0.7,0.7,1.5,1,2.5,1c1,0,1.9-0.3,2.5-1S638.1,206.1,638.1,205.1z
		 M638.2,189.7c0-1-0.3-1.8-1-2.5c-0.7-0.7-1.5-1-2.5-1c-1,0-1.8,0.3-2.5,1s-1,1.5-1,2.5c0,1,0.3,1.8,1,2.5s1.5,1,2.5,1
		c1,0,1.9-0.3,2.5-1C637.8,191.5,638.2,190.6,638.2,189.7z"/>
	<path class="st5" d="M659.6,211h-15.1v-3.6h5.7v-20.1h-5.7v-3.6h15.1v3.6h-5.7v20.1h5.7V211z"/>
	<path class="st5" d="M670.4,203l12,4.9v3.6l-18.5-7.5l8.6-7.3l-8.3-7.2l18.2-6.9v3.6l-11.4,4.3l6.6,5.8L670.4,203z"/>
	<path class="st5" d="M702.5,199.2h-6.4V211h-3.6v-11.9H686v-3.6h6.5v-11.9h3.6v11.9h6.4V199.2z"/>
	<path class="st5" d="M725.3,211h-3.6v-27.3h3.6V211z"/>
	<path class="st5" d="M750.6,199.2c1.8,0,3.3,0.6,4.5,1.7c1.2,1.1,1.8,2.5,1.8,4.2c0,1.6-0.6,3-1.8,4.2c-1.2,1.1-2.7,1.7-4.5,1.7
		c-1.8,0-3.2-0.6-4.4-1.7c-1.2-1.1-1.8-2.5-1.8-4.2c0-1.7,0.6-3.1,1.8-4.2C747.4,199.8,748.9,199.2,750.6,199.2z M750.7,183.8
		c1.8,0,3.3,0.6,4.5,1.7c1.2,1.1,1.8,2.5,1.8,4.2c0,1.6-0.6,3-1.8,4.2c-1.2,1.1-2.7,1.7-4.5,1.7c-1.7,0-3.2-0.6-4.4-1.7
		s-1.8-2.5-1.8-4.2c0-1.7,0.6-3.1,1.8-4.2C747.5,184.3,749,183.8,750.7,183.8z M754.2,205.1c0-1-0.3-1.8-1-2.5c-0.7-0.7-1.5-1-2.5-1
		c-1,0-1.8,0.3-2.5,1c-0.7,0.7-1,1.5-1,2.5c0,1,0.3,1.8,1,2.5c0.7,0.7,1.5,1,2.5,1c1,0,1.9-0.3,2.5-1
		C753.8,206.9,754.2,206.1,754.2,205.1z M754.3,189.7c0-1-0.3-1.8-1-2.5c-0.7-0.7-1.5-1-2.5-1c-1,0-1.8,0.3-2.5,1s-1,1.5-1,2.5
		c0,1,0.3,1.8,1,2.5s1.5,1,2.5,1c1,0,1.9-0.3,2.5-1C754,191.5,754.3,190.6,754.3,189.7z"/>
	<path class="st5" d="M775.7,211h-15.1v-3.6h5.7v-20.1h-5.7v-3.6h15.1v3.6H770v20.1h5.7V211z"/>
	<path class="st5" d="M795.6,183.7l11.5,27.3h-3.9l-9.6-22.7L784,211h-3.9l11.6-27.3H795.6z"/>
	<path class="st5" d="M816.6,198.4c1.8,0,3.3,0.6,4.5,1.8c1.2,1.2,1.8,2.7,1.8,4.5c0,1.8-0.6,3.3-1.8,4.5c-1.2,1.2-2.7,1.8-4.5,1.8
		c-1.8,0-3.2-0.6-4.4-1.8c-1.2-1.2-1.8-2.7-1.8-4.5c0-1.8,0.6-3.3,1.8-4.5C813.4,199,814.9,198.4,816.6,198.4z M820,204.7
		c0-1-0.3-1.8-1-2.5c-0.7-0.7-1.5-1-2.4-1c-0.9,0-1.7,0.3-2.4,1s-1,1.5-1,2.5c0,1,0.3,1.8,1,2.5s1.4,1,2.4,1c1,0,1.8-0.3,2.4-1
		C819.7,206.5,820,205.7,820,204.7z"/>
</g>
<g>
	<rect x="-0.3" y="107.7" class="st2" width="980.3" height="68.8"/>
	<path d="M19.2,144.2v-34.9h19v6.7h-12v6.1h11.1v6.7H26.3v8.8h12v6.7H19.2z M35.4,96.2l-5.7,9.2h-4.5l3.9-9.2H35.4z"/>
	<path d="M53.1,144.9c-1.8,0-3.4-0.3-4.8-0.8s-2.7-1.4-3.8-2.5c-1.1-1.1-1.9-2.6-2.5-4.3c-0.6-1.7-0.9-3.8-0.9-6.1
		c0-2.5,0.3-4.7,1-6.4s1.5-3.2,2.6-4.4c1.1-1.1,2.3-1.9,3.7-2.4c1.4-0.5,2.9-0.8,4.5-0.8c1.2,0,2.3,0.2,3.5,0.5
		c1.2,0.3,2.4,0.9,3.5,1.6v7h-0.9c-0.3-0.3-0.6-0.7-1-1s-0.8-0.7-1.3-1c-0.5-0.3-1-0.6-1.6-0.8c-0.6-0.2-1.3-0.3-2-0.3
		c-1.7,0-3,0.7-3.9,2.2s-1.4,3.4-1.4,5.9c0,2.6,0.5,4.6,1.5,5.9s2.3,1.9,3.9,1.9c0.8,0,1.6-0.1,2.2-0.4s1.2-0.5,1.6-0.8
		c0.4-0.3,0.8-0.7,1.1-1c0.3-0.4,0.6-0.7,0.8-0.9H60v7c-0.4,0.2-0.8,0.4-1.3,0.7s-1,0.5-1.5,0.7c-0.6,0.2-1.2,0.4-1.8,0.5
		C54.8,144.8,54,144.9,53.1,144.9z"/>
	<path d="M83.5,131c0,4.3-1,7.7-2.9,10.2c-1.9,2.5-4.6,3.7-8.1,3.7c-3.5,0-6.2-1.2-8.1-3.7c-1.9-2.5-2.9-5.9-2.9-10.2
		c0-4.4,1-7.8,2.9-10.3c1.9-2.5,4.6-3.7,8.1-3.7c3.5,0,6.2,1.2,8.1,3.7S83.5,126.7,83.5,131z M76.7,131.1c0-1.6-0.1-2.9-0.3-3.9
		s-0.5-1.9-0.9-2.5c-0.4-0.7-0.8-1.1-1.3-1.4s-1.1-0.4-1.7-0.4c-0.6,0-1.1,0.1-1.6,0.3c-0.5,0.2-0.9,0.7-1.3,1.3
		c-0.4,0.6-0.7,1.4-0.9,2.5s-0.3,2.4-0.3,4s0.1,2.9,0.3,3.9s0.5,1.8,0.8,2.4c0.4,0.6,0.8,1.1,1.3,1.3s1.1,0.4,1.8,0.4
		c0.5,0,1.1-0.1,1.6-0.4c0.5-0.3,1-0.7,1.3-1.3c0.4-0.7,0.7-1.5,0.9-2.4S76.7,132.8,76.7,131.1z"/>
	<path d="M93.7,144.2H87v-36.5h6.6V144.2z"/>
	<path d="M109.6,144.9c-4,0-7.1-1.2-9.2-3.6s-3.2-5.8-3.2-10.1c0-4.3,1-7.7,3-10.3c2-2.6,4.8-3.8,8.4-3.8c3.3,0,5.7,1.1,7.3,3.3
		s2.5,5.3,2.5,9.3v3h-14.5c0.1,1.2,0.3,2.2,0.6,3.1s0.8,1.5,1.4,2c0.6,0.5,1.2,0.8,2,1c0.8,0.2,1.6,0.3,2.5,0.3
		c0.8,0,1.5-0.1,2.3-0.3s1.4-0.5,2-0.8c0.5-0.3,1-0.6,1.5-1s0.8-0.6,1.1-0.9h0.7v6.8c-0.5,0.3-1,0.5-1.5,0.7
		c-0.4,0.2-1.1,0.5-1.8,0.7c-0.7,0.2-1.5,0.4-2.2,0.6C111.6,144.8,110.7,144.9,109.6,144.9z M111.8,127.6c0-1.7-0.4-3.1-1-4
		s-1.5-1.4-2.8-1.4c-1.3,0-2.3,0.5-3,1.4c-0.7,1-1.1,2.3-1.2,3.9H111.8z"/>
	<path d="M157.6,144.2h-6.8l-10.9-24.3v24.3h-6.5v-34.9h8.7l9,20v-20h6.5V144.2z"/>
	<path d="M174.6,141.4c-0.5,0.5-0.9,0.9-1.2,1.3s-0.8,0.8-1.4,1.1c-0.6,0.4-1.2,0.6-1.7,0.8s-1.3,0.3-2.4,0.3
		c-1.9,0-3.4-0.8-4.7-2.3s-1.9-3.5-1.9-5.9c0-2,0.3-3.5,0.9-4.7c0.6-1.2,1.5-2.2,2.7-2.9c1.2-0.7,2.6-1.2,4.3-1.5
		c1.7-0.3,3.5-0.5,5.4-0.7v-0.1c0-1.5-0.4-2.5-1.3-3s-2.2-0.8-3.9-0.8c-0.8,0-1.7,0.2-2.7,0.5s-2.1,0.8-3.1,1.3h-0.6v-6.4
		c0.7-0.2,1.7-0.5,3.2-0.8c1.5-0.3,2.9-0.5,4.4-0.5c3.7,0,6.3,0.8,8,2.3c1.7,1.5,2.5,3.8,2.5,6.9v17.9h-6.6V141.4z M174.6,137.3
		v-5.5c-1.1,0.1-2,0.3-2.7,0.4s-1.4,0.3-2,0.6c-0.6,0.3-1,0.6-1.4,1.1c-0.3,0.5-0.5,1.2-0.5,2c0,1.2,0.3,2.1,0.8,2.5
		c0.5,0.5,1.3,0.7,2.4,0.7c0.6,0,1.2-0.2,1.8-0.5C173.6,138.4,174.1,137.9,174.6,137.3z"/>
	<path d="M194.2,144.7c-2.7,0-4.7-0.7-5.9-2.1s-1.8-3.6-1.8-6.8v-12.3H184v-5.7h2.5v-7.5h6.6v7.5h6.4v5.7h-6.4v9.3
		c0,0.9,0,1.7,0,2.4s0.1,1.3,0.3,1.9c0.2,0.5,0.5,1,0.9,1.3c0.4,0.3,1.1,0.5,2,0.5c0.4,0,0.8-0.1,1.4-0.3c0.6-0.2,1-0.4,1.2-0.5h0.6
		v5.8c-0.7,0.2-1.5,0.4-2.3,0.6C196.4,144.6,195.4,144.7,194.2,144.7z"/>
	<path d="M209,114.1h-7v-6.4h7V114.1z M208.8,144.2h-6.6v-26.3h6.6V144.2z"/>
	<path d="M234.3,131c0,4.3-1,7.7-2.9,10.2c-1.9,2.5-4.6,3.7-8.1,3.7c-3.5,0-6.2-1.2-8.1-3.7c-1.9-2.5-2.9-5.9-2.9-10.2
		c0-4.4,1-7.8,2.9-10.3c1.9-2.5,4.6-3.7,8.1-3.7c3.5,0,6.2,1.2,8.1,3.7S234.3,126.7,234.3,131z M227.5,131.1c0-1.6-0.1-2.9-0.3-3.9
		s-0.5-1.9-0.9-2.5c-0.4-0.7-0.8-1.1-1.3-1.4s-1.1-0.4-1.7-0.4c-0.6,0-1.1,0.1-1.6,0.3c-0.5,0.2-0.9,0.7-1.3,1.3
		c-0.4,0.6-0.7,1.4-0.9,2.5s-0.3,2.4-0.3,4s0.1,2.9,0.3,3.9s0.5,1.8,0.8,2.4c0.4,0.6,0.8,1.1,1.3,1.3s1.1,0.4,1.8,0.4
		c0.5,0,1.1-0.1,1.6-0.4c0.5-0.3,1-0.7,1.3-1.3c0.4-0.7,0.7-1.5,0.9-2.4S227.5,132.8,227.5,131.1z"/>
	<path d="M257.7,144.2H251v-13.1c0-1.1,0-2.1-0.1-3.2c-0.1-1.1-0.2-1.8-0.4-2.3c-0.2-0.6-0.6-1-1-1.3s-1-0.4-1.7-0.4
		c-0.5,0-1.1,0.1-1.6,0.4s-1.1,0.6-1.8,1.2v18.7h-6.6v-26.3h6.6v2.9c1.1-1.1,2.1-2,3.2-2.7c1-0.6,2.2-1,3.4-1c2.2,0,3.8,0.8,5,2.5
		s1.7,4.2,1.7,7.4V144.2z"/>
	<path d="M274.3,141.4c-0.5,0.5-0.9,0.9-1.2,1.3s-0.8,0.8-1.4,1.1c-0.6,0.4-1.2,0.6-1.7,0.8s-1.3,0.3-2.4,0.3
		c-1.9,0-3.4-0.8-4.7-2.3s-1.9-3.5-1.9-5.9c0-2,0.3-3.5,0.9-4.7c0.6-1.2,1.5-2.2,2.7-2.9c1.2-0.7,2.6-1.2,4.3-1.5
		c1.7-0.3,3.5-0.5,5.4-0.7v-0.1c0-1.5-0.4-2.5-1.3-3s-2.2-0.8-3.9-0.8c-0.8,0-1.7,0.2-2.7,0.5s-2.1,0.8-3.1,1.3h-0.6v-6.4
		c0.7-0.2,1.7-0.5,3.2-0.8c1.5-0.3,2.9-0.5,4.4-0.5c3.7,0,6.3,0.8,8,2.3c1.7,1.5,2.5,3.8,2.5,6.9v17.9h-6.6V141.4z M274.3,137.3
		v-5.5c-1.1,0.1-2,0.3-2.7,0.4s-1.4,0.3-2,0.6c-0.6,0.3-1,0.6-1.4,1.1c-0.3,0.5-0.5,1.2-0.5,2c0,1.2,0.3,2.1,0.8,2.5
		c0.5,0.5,1.3,0.7,2.4,0.7c0.6,0,1.2-0.2,1.8-0.5C273.3,138.4,273.8,137.9,274.3,137.3z"/>
	<path d="M292.4,144.2h-6.6v-36.5h6.6V144.2z"/>
	<path d="M308.3,144.9c-4,0-7.1-1.2-9.2-3.6s-3.2-5.8-3.2-10.1c0-4.3,1-7.7,3-10.3c2-2.6,4.8-3.8,8.4-3.8c3.3,0,5.7,1.1,7.3,3.3
		s2.5,5.3,2.5,9.3v3h-14.5c0.1,1.2,0.3,2.2,0.6,3.1s0.8,1.5,1.4,2c0.6,0.5,1.2,0.8,2,1c0.8,0.2,1.6,0.3,2.5,0.3
		c0.8,0,1.5-0.1,2.3-0.3s1.4-0.5,2-0.8c0.5-0.3,1-0.6,1.5-1s0.8-0.6,1.1-0.9h0.7v6.8c-0.5,0.3-1,0.5-1.5,0.7
		c-0.4,0.2-1.1,0.5-1.8,0.7c-0.7,0.2-1.5,0.4-2.2,0.6C310.4,144.8,309.4,144.9,308.3,144.9z M310.5,127.6c0-1.7-0.4-3.1-1-4
		s-1.5-1.4-2.8-1.4c-1.3,0-2.3,0.5-3,1.4c-0.7,1-1.1,2.3-1.2,3.9H310.5z"/>
	<path d="M351.1,144.2h-6.6v-2.7c-0.4,0.4-0.9,0.9-1.5,1.4c-0.5,0.5-1,0.9-1.4,1.1c-0.5,0.3-1.1,0.5-1.6,0.7s-1.1,0.2-1.9,0.2
		c-2.4,0-4.3-1.2-5.8-3.7s-2.1-5.8-2.1-10c0-2.3,0.2-4.3,0.7-6c0.5-1.7,1.1-3.2,2-4.4c0.8-1.1,1.7-2,2.8-2.7s2.3-1,3.5-1
		c1.1,0,2,0.1,2.7,0.4c0.7,0.3,1.5,0.7,2.5,1.3v-11.2h6.6V144.2z M344.5,136.9V124c-0.3-0.2-0.8-0.4-1.3-0.5c-0.5-0.1-1-0.2-1.4-0.2
		c-1.6,0-2.8,0.7-3.6,2.1s-1.2,3.3-1.2,5.8c0,2.6,0.3,4.5,1,5.6s1.7,1.7,3.1,1.7c0.6,0,1.2-0.1,1.8-0.4S344,137.4,344.5,136.9z"/>
	<path d="M367.1,144.9c-4,0-7.1-1.2-9.2-3.6s-3.2-5.8-3.2-10.1c0-4.3,1-7.7,3-10.3c2-2.6,4.8-3.8,8.4-3.8c3.3,0,5.7,1.1,7.3,3.3
		s2.5,5.3,2.5,9.3v3h-14.5c0.1,1.2,0.3,2.2,0.6,3.1s0.8,1.5,1.4,2c0.6,0.5,1.2,0.8,2,1c0.8,0.2,1.6,0.3,2.5,0.3
		c0.8,0,1.5-0.1,2.3-0.3s1.4-0.5,2-0.8c0.5-0.3,1-0.6,1.5-1s0.8-0.6,1.1-0.9h0.7v6.8c-0.5,0.3-1,0.5-1.5,0.7
		c-0.4,0.2-1.1,0.5-1.8,0.7c-0.7,0.2-1.5,0.4-2.2,0.6C369.1,144.8,368.2,144.9,367.1,144.9z M369.3,127.6c0-1.7-0.4-3.1-1-4
		s-1.5-1.4-2.8-1.4c-1.3,0-2.3,0.5-3,1.4c-0.7,1-1.1,2.3-1.2,3.9H369.3z"/>
	<path d="M385.7,144.9c-1.6,0-3-0.2-4.4-0.6c-1.4-0.4-2.5-0.9-3.5-1.5v-6.9h0.5c0.3,0.3,0.7,0.6,1.1,1c0.4,0.4,1,0.7,1.7,1.1
		c0.6,0.4,1.3,0.7,2.1,0.9c0.8,0.3,1.6,0.4,2.5,0.4c0.9,0,1.8-0.2,2.5-0.5s1.1-0.9,1.1-1.7c0-0.6-0.2-1.1-0.5-1.4s-1-0.6-1.9-0.9
		c-0.5-0.2-1.1-0.3-1.9-0.5c-0.8-0.2-1.5-0.4-2-0.6c-1.7-0.6-2.9-1.6-3.8-2.8c-0.8-1.3-1.3-2.9-1.3-5c0-1.2,0.2-2.3,0.7-3.3
		c0.4-1,1.1-2,1.9-2.8c0.8-0.8,1.9-1.4,3.1-1.9c1.2-0.5,2.6-0.7,4.2-0.7c1.5,0,2.9,0.2,4.1,0.6c1.2,0.4,2.3,0.8,3.2,1.3v6.7h-0.5
		c-0.2-0.2-0.6-0.5-1.1-0.9s-1-0.7-1.4-0.9c-0.6-0.3-1.2-0.6-1.9-0.8c-0.7-0.2-1.4-0.3-2.1-0.3c-1,0-1.8,0.2-2.4,0.6s-1,0.9-1,1.6
		c0,0.6,0.2,1.1,0.5,1.4c0.3,0.3,1,0.7,2.1,1c0.6,0.2,1.2,0.3,2,0.5c0.7,0.2,1.4,0.4,2.1,0.7c1.5,0.6,2.7,1.5,3.5,2.7
		s1.2,2.7,1.2,4.7c0,1.2-0.2,2.4-0.7,3.5s-1.1,2.1-2,2.8c-0.9,0.8-2,1.5-3.2,1.9S387.4,144.9,385.7,144.9z"/>
	<path d="M419.6,144.8c-2.2,0-4.1-0.3-5.7-0.8c-1.6-0.5-3.1-1.2-4.5-1.9v-8.3h0.6c1.4,1.5,3,2.6,4.7,3.4c1.7,0.8,3.4,1.2,5,1.2
		c0.4,0,0.9-0.1,1.6-0.2c0.7-0.1,1.2-0.3,1.6-0.5c0.5-0.3,0.9-0.6,1.2-1.1c0.3-0.5,0.5-1.1,0.5-1.9c0-0.9-0.3-1.6-0.8-2.1
		c-0.6-0.5-1.2-0.9-2-1.2c-1-0.3-2-0.6-3.1-0.9c-1.1-0.3-2.1-0.6-3.1-1c-2.2-1-3.7-2.2-4.7-3.8c-0.9-1.6-1.4-3.6-1.4-6
		c0-3.3,1.1-5.9,3.3-7.9c2.2-2,5-3,8.4-3c1.7,0,3.3,0.2,5,0.6c1.7,0.4,3.1,1,4.5,1.7v8H430c-1-1.1-2.3-2-3.8-2.8
		c-1.5-0.8-3.1-1.1-4.6-1.1c-0.6,0-1.2,0.1-1.7,0.2s-1,0.3-1.6,0.6c-0.4,0.3-0.8,0.6-1.1,1.1c-0.3,0.5-0.5,1-0.5,1.7
		c0,0.9,0.3,1.6,0.8,2.1s1.5,1,3,1.4c0.9,0.3,1.9,0.5,2.7,0.8c0.9,0.3,1.8,0.6,2.8,1c2,0.9,3.4,2.1,4.4,3.5c1,1.5,1.4,3.4,1.4,5.8
		c0,3.5-1.1,6.3-3.3,8.4C426.3,143.8,423.3,144.8,419.6,144.8z"/>
	<path d="M445.4,144.9c-1.8,0-3.4-0.3-4.8-0.8s-2.7-1.4-3.8-2.5c-1.1-1.1-1.9-2.6-2.5-4.3c-0.6-1.7-0.9-3.8-0.9-6.1
		c0-2.5,0.3-4.7,1-6.4s1.5-3.2,2.6-4.4c1.1-1.1,2.3-1.9,3.7-2.4c1.4-0.5,2.9-0.8,4.5-0.8c1.2,0,2.3,0.2,3.5,0.5
		c1.2,0.3,2.4,0.9,3.5,1.6v7h-0.9c-0.3-0.3-0.6-0.7-1-1s-0.8-0.7-1.3-1c-0.5-0.3-1-0.6-1.6-0.8c-0.6-0.2-1.3-0.3-2-0.3
		c-1.7,0-3,0.7-3.9,2.2s-1.4,3.4-1.4,5.9c0,2.6,0.5,4.6,1.5,5.9s2.3,1.9,3.9,1.9c0.8,0,1.6-0.1,2.2-0.4s1.2-0.5,1.6-0.8
		c0.4-0.3,0.8-0.7,1.1-1c0.3-0.4,0.6-0.7,0.8-0.9h0.9v7c-0.4,0.2-0.8,0.4-1.3,0.7s-1,0.5-1.5,0.7c-0.6,0.2-1.2,0.4-1.8,0.5
		C447.1,144.8,446.4,144.9,445.4,144.9z"/>
	<path d="M462.3,114.1h-7v-6.4h7V114.1z M462.1,144.2h-6.6v-26.3h6.6V144.2z"/>
	<path d="M478,144.9c-4,0-7.1-1.2-9.2-3.6s-3.2-5.8-3.2-10.1c0-4.3,1-7.7,3-10.3c2-2.6,4.8-3.8,8.4-3.8c3.3,0,5.7,1.1,7.3,3.3
		c1.6,2.2,2.5,5.3,2.5,9.3v3h-14.5c0.1,1.2,0.3,2.2,0.6,3.1s0.8,1.5,1.4,2c0.6,0.5,1.2,0.8,2,1c0.8,0.2,1.6,0.3,2.5,0.3
		c0.8,0,1.5-0.1,2.3-0.3c0.7-0.2,1.4-0.5,2-0.8c0.5-0.3,1-0.6,1.5-1s0.8-0.6,1.1-0.9h0.7v6.8c-0.5,0.3-1,0.5-1.5,0.7
		c-0.4,0.2-1.1,0.5-1.8,0.7c-0.7,0.2-1.5,0.4-2.2,0.6C480,144.8,479.1,144.9,478,144.9z M480.2,127.6c0-1.7-0.4-3.1-1-4
		s-1.5-1.4-2.8-1.4c-1.3,0-2.3,0.5-3,1.4c-0.7,1-1.1,2.3-1.2,3.9H480.2z"/>
	<path d="M510,144.2h-6.7v-13.1c0-1.1,0-2.1-0.1-3.2s-0.2-1.8-0.4-2.3c-0.2-0.6-0.6-1-1-1.3s-1-0.4-1.7-0.4c-0.5,0-1.1,0.1-1.6,0.4
		c-0.6,0.3-1.1,0.6-1.8,1.2v18.7h-6.6v-26.3h6.6v2.9c1.1-1.1,2.1-2,3.2-2.7s2.2-1,3.4-1c2.2,0,3.8,0.8,5,2.5s1.7,4.2,1.7,7.4V144.2z
		"/>
	<path d="M525.4,144.9c-1.8,0-3.4-0.3-4.8-0.8s-2.7-1.4-3.8-2.5c-1.1-1.1-1.9-2.6-2.5-4.3s-0.9-3.8-0.9-6.1c0-2.5,0.3-4.7,1-6.4
		c0.6-1.8,1.5-3.2,2.6-4.4c1.1-1.1,2.3-1.9,3.7-2.4c1.4-0.5,2.9-0.8,4.5-0.8c1.2,0,2.3,0.2,3.5,0.5s2.4,0.9,3.5,1.6v7h-0.9
		c-0.3-0.3-0.6-0.7-1-1c-0.4-0.4-0.8-0.7-1.3-1c-0.5-0.3-1-0.6-1.6-0.8s-1.3-0.3-2-0.3c-1.7,0-3,0.7-3.9,2.2s-1.4,3.4-1.4,5.9
		c0,2.6,0.5,4.6,1.5,5.9c1,1.3,2.3,1.9,3.9,1.9c0.8,0,1.6-0.1,2.2-0.4c0.6-0.2,1.2-0.5,1.6-0.8c0.4-0.3,0.8-0.7,1.1-1
		s0.6-0.7,0.8-0.9h0.9v7c-0.4,0.2-0.8,0.4-1.3,0.7c-0.5,0.3-1,0.5-1.5,0.7c-0.6,0.2-1.2,0.4-1.8,0.5
		C527,144.8,526.3,144.9,525.4,144.9z"/>
	<path d="M546.2,144.9c-4,0-7.1-1.2-9.2-3.6s-3.2-5.8-3.2-10.1c0-4.3,1-7.7,3-10.3s4.8-3.8,8.4-3.8c3.3,0,5.7,1.1,7.3,3.3
		c1.6,2.2,2.5,5.3,2.5,9.3v3h-14.5c0.1,1.2,0.3,2.2,0.6,3.1c0.4,0.8,0.8,1.5,1.4,2c0.6,0.5,1.2,0.8,2,1c0.8,0.2,1.6,0.3,2.5,0.3
		c0.8,0,1.5-0.1,2.3-0.3c0.7-0.2,1.4-0.5,2-0.8c0.5-0.3,1-0.6,1.5-1s0.8-0.6,1.1-0.9h0.7v6.8c-0.5,0.3-1,0.5-1.5,0.7
		c-0.4,0.2-1.1,0.5-1.8,0.7c-0.7,0.2-1.5,0.4-2.2,0.6C548.3,144.8,547.3,144.9,546.2,144.9z M548.4,127.6c0-1.7-0.4-3.1-1-4
		s-1.5-1.4-2.8-1.4c-1.3,0-2.3,0.5-3,1.4c-0.7,1-1.1,2.3-1.2,3.9H548.4z"/>
	<path d="M564.8,144.9c-1.6,0-3-0.2-4.4-0.6s-2.5-0.9-3.5-1.5v-6.9h0.5c0.3,0.3,0.7,0.6,1.1,1s1,0.7,1.7,1.1
		c0.6,0.4,1.3,0.7,2.1,0.9s1.6,0.4,2.5,0.4c0.9,0,1.8-0.2,2.5-0.5c0.7-0.4,1.1-0.9,1.1-1.7c0-0.6-0.2-1.1-0.5-1.4s-1-0.6-1.9-0.9
		c-0.5-0.2-1.1-0.3-1.9-0.5c-0.8-0.2-1.5-0.4-2-0.6c-1.7-0.6-2.9-1.6-3.8-2.8c-0.8-1.3-1.3-2.9-1.3-5c0-1.2,0.2-2.3,0.7-3.3
		c0.4-1,1.1-2,1.9-2.8c0.8-0.8,1.9-1.4,3.1-1.9s2.6-0.7,4.2-0.7c1.5,0,2.9,0.2,4.1,0.6c1.2,0.4,2.3,0.8,3.2,1.3v6.7h-0.5
		c-0.2-0.2-0.6-0.5-1.1-0.9c-0.5-0.4-1-0.7-1.4-0.9c-0.6-0.3-1.2-0.6-1.9-0.8c-0.7-0.2-1.4-0.3-2.1-0.3c-1,0-1.8,0.2-2.4,0.6
		c-0.7,0.4-1,0.9-1,1.6c0,0.6,0.2,1.1,0.5,1.4s1,0.7,2.1,1c0.6,0.2,1.2,0.3,2,0.5c0.7,0.2,1.4,0.4,2.1,0.7c1.5,0.6,2.7,1.5,3.5,2.7
		s1.2,2.7,1.2,4.7c0,1.2-0.2,2.4-0.7,3.5s-1.1,2.1-2,2.8c-0.9,0.8-2,1.5-3.2,1.9S566.5,144.9,564.8,144.9z"/>
	<path d="M587,144.2l9.5-34.9h7.7l9.5,34.9h-7.3l-1.8-7.1h-8.9l-1.8,7.1H587z M603.1,130.7l-2.9-11.5l-2.9,11.5H603.1z"/>
	<path d="M637,130.7c0,4.2-0.9,7.6-2.6,10.2c-1.7,2.6-3.8,3.9-6.4,3.9c-1.1,0-2-0.1-2.8-0.4c-0.8-0.3-1.6-0.8-2.5-1.4v11h-6.6v-36
		h6.6v2.7c1-1,2-1.9,3-2.5s2.2-1,3.5-1c2.5,0,4.4,1.2,5.7,3.6S637,126.5,637,130.7z M630.2,130.8c0-2.6-0.3-4.4-1-5.6
		c-0.6-1.2-1.6-1.7-3-1.7c-0.6,0-1.2,0.1-1.8,0.4c-0.6,0.2-1.2,0.6-1.7,1.1v13.2c0.4,0.2,0.7,0.3,1.2,0.4s0.9,0.1,1.5,0.1
		c1.6,0,2.8-0.7,3.6-2C629.8,135.4,630.2,133.4,630.2,130.8z"/>
	<path d="M661.4,130.7c0,4.2-0.9,7.6-2.6,10.2c-1.7,2.6-3.8,3.9-6.4,3.9c-1.1,0-2-0.1-2.8-0.4c-0.8-0.3-1.6-0.8-2.5-1.4v11h-6.6v-36
		h6.6v2.7c1-1,2-1.9,3-2.5s2.2-1,3.5-1c2.5,0,4.4,1.2,5.7,3.6S661.4,126.5,661.4,130.7z M654.6,130.8c0-2.6-0.3-4.4-1-5.6
		c-0.6-1.2-1.6-1.7-3-1.7c-0.6,0-1.2,0.1-1.8,0.4c-0.6,0.2-1.2,0.6-1.7,1.1v13.2c0.4,0.2,0.7,0.3,1.2,0.4s0.9,0.1,1.5,0.1
		c1.6,0,2.8-0.7,3.6-2C654.2,135.4,654.6,133.4,654.6,130.8z"/>
	<path d="M671.5,144.2h-6.6v-36.5h6.6V144.2z"/>
	<path d="M683.4,114.1h-7v-6.4h7V114.1z M683.2,144.2h-6.6v-26.3h6.6V144.2z"/>
	<path d="M707.6,153.8H701v-12.2c-0.5,0.5-1,0.9-1.5,1.4c-0.5,0.4-1,0.8-1.4,1c-0.6,0.3-1.1,0.6-1.6,0.7c-0.5,0.1-1.1,0.2-1.9,0.2
		c-2.4,0-4.3-1.2-5.7-3.7c-1.4-2.5-2.1-5.8-2.1-10c0-2.3,0.2-4.3,0.7-6c0.5-1.7,1.1-3.2,2-4.4c0.8-1.1,1.7-2,2.8-2.7s2.3-1,3.5-1
		c1,0,2,0.2,2.7,0.5s1.6,0.8,2.5,1.4l0.2-1.2h6.4V153.8z M701,136.9V124c-0.3-0.2-0.8-0.4-1.3-0.5c-0.5-0.1-1-0.2-1.4-0.2
		c-1.6,0-2.8,0.7-3.6,2.1s-1.2,3.3-1.2,5.8c0,2.6,0.3,4.5,1,5.6s1.7,1.7,3.1,1.7c0.6,0,1.2-0.1,1.8-0.4
		C700,137.8,700.5,137.4,701,136.9z"/>
	<path d="M732.4,144.2h-6.6v-2.9c-1.1,1.2-2.2,2.1-3.2,2.7c-1,0.6-2.1,0.9-3.4,0.9c-2.1,0-3.7-0.8-4.9-2.5c-1.2-1.6-1.8-4.1-1.8-7.4
		v-17.1h6.7v13.1c0,1.4,0,2.5,0.1,3.3s0.2,1.6,0.4,2.2c0.2,0.5,0.5,1,0.9,1.2c0.4,0.3,1,0.4,1.8,0.4c0.5,0,1-0.1,1.7-0.4
		s1.2-0.7,1.8-1.1v-18.7h6.6V144.2z"/>
	<path d="M748.3,144.9c-4,0-7.1-1.2-9.2-3.6s-3.2-5.8-3.2-10.1c0-4.3,1-7.7,3-10.3s4.8-3.8,8.4-3.8c3.3,0,5.7,1.1,7.3,3.3
		c1.6,2.2,2.5,5.3,2.5,9.3v3h-14.5c0.1,1.2,0.3,2.2,0.6,3.1c0.4,0.8,0.8,1.5,1.4,2c0.6,0.5,1.2,0.8,2,1c0.8,0.2,1.6,0.3,2.5,0.3
		c0.8,0,1.5-0.1,2.3-0.3c0.7-0.2,1.4-0.5,2-0.8c0.5-0.3,1-0.6,1.5-1s0.8-0.6,1.1-0.9h0.7v6.8c-0.5,0.3-1,0.5-1.5,0.7
		c-0.4,0.2-1.1,0.5-1.8,0.7c-0.7,0.2-1.5,0.4-2.2,0.6C750.4,144.8,749.4,144.9,748.3,144.9z M750.5,127.6c0-1.7-0.4-3.1-1-4
		s-1.5-1.4-2.8-1.4c-1.3,0-2.3,0.5-3,1.4c-0.7,1-1.1,2.3-1.2,3.9H750.5z M753.5,104.9l-5.7,9.2h-4.5l3.9-9.2H753.5z"/>
	<path d="M771.3,144.9c-4,0-7.1-1.2-9.2-3.6s-3.2-5.8-3.2-10.1c0-4.3,1-7.7,3-10.3s4.8-3.8,8.4-3.8c3.3,0,5.7,1.1,7.3,3.3
		c1.6,2.2,2.5,5.3,2.5,9.3v3h-14.5c0.1,1.2,0.3,2.2,0.6,3.1c0.4,0.8,0.8,1.5,1.4,2c0.6,0.5,1.2,0.8,2,1c0.8,0.2,1.6,0.3,2.5,0.3
		c0.8,0,1.5-0.1,2.3-0.3c0.7-0.2,1.4-0.5,2-0.8c0.5-0.3,1-0.6,1.5-1s0.8-0.6,1.1-0.9h0.7v6.8c-0.5,0.3-1,0.5-1.5,0.7
		c-0.4,0.2-1.1,0.5-1.8,0.7c-0.7,0.2-1.5,0.4-2.2,0.6C773.4,144.8,772.4,144.9,771.3,144.9z M773.5,127.6c0-1.7-0.4-3.1-1-4
		s-1.5-1.4-2.8-1.4c-1.3,0-2.3,0.5-3,1.4c-0.7,1-1.1,2.3-1.2,3.9H773.5z"/>
	<path d="M789.9,144.9c-1.6,0-3-0.2-4.4-0.6s-2.5-0.9-3.5-1.5v-6.9h0.5c0.3,0.3,0.7,0.6,1.1,1s1,0.7,1.7,1.1
		c0.6,0.4,1.3,0.7,2.1,0.9s1.6,0.4,2.5,0.4c0.9,0,1.8-0.2,2.5-0.5c0.7-0.4,1.1-0.9,1.1-1.7c0-0.6-0.2-1.1-0.5-1.4s-1-0.6-1.9-0.9
		c-0.5-0.2-1.1-0.3-1.9-0.5c-0.8-0.2-1.5-0.4-2-0.6c-1.7-0.6-2.9-1.6-3.8-2.8c-0.8-1.3-1.3-2.9-1.3-5c0-1.2,0.2-2.3,0.7-3.3
		c0.4-1,1.1-2,1.9-2.8c0.8-0.8,1.9-1.4,3.1-1.9s2.6-0.7,4.2-0.7c1.5,0,2.9,0.2,4.1,0.6c1.2,0.4,2.3,0.8,3.2,1.3v6.7h-0.5
		c-0.2-0.2-0.6-0.5-1.1-0.9c-0.5-0.4-1-0.7-1.4-0.9c-0.6-0.3-1.2-0.6-1.9-0.8c-0.7-0.2-1.4-0.3-2.1-0.3c-1,0-1.8,0.2-2.4,0.6
		c-0.7,0.4-1,0.9-1,1.6c0,0.6,0.2,1.1,0.5,1.4s1,0.7,2.1,1c0.6,0.2,1.2,0.3,2,0.5c0.7,0.2,1.4,0.4,2.1,0.7c1.5,0.6,2.7,1.5,3.5,2.7
		s1.2,2.7,1.2,4.7c0,1.2-0.2,2.4-0.7,3.5s-1.1,2.1-2,2.8c-0.9,0.8-2,1.5-3.2,1.9S791.7,144.9,789.9,144.9z"/>
	<path d="M834.1,144.2h-6.6v-2.7c-0.4,0.4-0.9,0.9-1.5,1.4c-0.5,0.5-1,0.9-1.4,1.1c-0.5,0.3-1.1,0.5-1.6,0.7
		c-0.5,0.2-1.1,0.2-1.9,0.2c-2.4,0-4.3-1.2-5.8-3.7s-2.1-5.8-2.1-10c0-2.3,0.2-4.3,0.7-6c0.5-1.7,1.1-3.2,2-4.4
		c0.8-1.1,1.7-2,2.8-2.7s2.3-1,3.5-1c1.1,0,2,0.1,2.7,0.4c0.7,0.3,1.5,0.7,2.5,1.3v-11.2h6.6V144.2z M827.4,136.9V124
		c-0.3-0.2-0.8-0.4-1.3-0.5c-0.5-0.1-1-0.2-1.4-0.2c-1.6,0-2.8,0.7-3.6,2.1s-1.2,3.3-1.2,5.8c0,2.6,0.3,4.5,1,5.6s1.7,1.7,3.1,1.7
		c0.6,0,1.2-0.1,1.8-0.4C826.4,137.8,827,137.4,827.4,136.9z"/>
	<path d="M847.8,107.7l-5.1,13.8h-4.2l3-13.8H847.8z"/>
	<path d="M875.8,126.7c0,5.6-1.2,10.1-3.7,13.3c-2.4,3.2-5.8,4.9-10,4.9c-4.2,0-7.6-1.6-10-4.9s-3.6-7.7-3.6-13.3
		c0-5.6,1.2-10,3.6-13.3s5.8-4.9,10-4.9c4.2,0,7.6,1.6,10,4.9C874.6,116.7,875.8,121.1,875.8,126.7z M868.5,126.7
		c0-2.1-0.2-3.8-0.5-5.3s-0.8-2.7-1.4-3.6c-0.6-1-1.3-1.6-2.1-2.1s-1.6-0.6-2.4-0.6c-0.9,0-1.7,0.2-2.4,0.6s-1.4,1.1-2,2.1
		c-0.6,0.9-1,2.1-1.4,3.6s-0.5,3.3-0.5,5.4c0,2.1,0.2,3.9,0.5,5.3c0.3,1.4,0.8,2.6,1.4,3.6c0.6,1,1.3,1.7,2.1,2.1
		c0.8,0.4,1.6,0.6,2.4,0.6c0.8,0,1.6-0.2,2.4-0.7c0.8-0.4,1.5-1.1,2-2.1c0.6-1,1.1-2.2,1.4-3.6S868.5,128.9,868.5,126.7z"/>
	<path d="M899.4,144.2h-6.6v-2.9c-1.1,1.2-2.2,2.1-3.2,2.7c-1,0.6-2.1,0.9-3.4,0.9c-2.1,0-3.7-0.8-4.9-2.5c-1.2-1.6-1.8-4.1-1.8-7.4
		v-17.1h6.7v13.1c0,1.4,0,2.5,0.1,3.3s0.2,1.6,0.4,2.2c0.2,0.5,0.5,1,0.9,1.2c0.4,0.3,1,0.4,1.8,0.4c0.5,0,1-0.1,1.7-0.4
		s1.2-0.7,1.8-1.1v-18.7h6.6V144.2z"/>
	<path d="M913.4,144.6c0,3-0.7,5.3-2.1,6.9c-1.4,1.7-3.3,2.5-5.5,2.5c-1.2,0-2.3-0.1-3.3-0.2s-1.7-0.3-2.2-0.4v-6h0.5
		c0.4,0.2,0.9,0.3,1.4,0.4c0.5,0.1,0.9,0.2,1.3,0.2c1.3,0,2.1-0.5,2.6-1.5c0.5-1,0.7-2.6,0.7-4.8v-18.2H903v-5.7h10.4V144.6z
		 M913.4,114.1h-7.1v-6.4h7.1V114.1z"/>
	<path d="M937.8,144.2h-6.6v-2.7c-0.4,0.4-0.9,0.9-1.5,1.4c-0.5,0.5-1,0.9-1.4,1.1c-0.5,0.3-1.1,0.5-1.6,0.7
		c-0.5,0.2-1.1,0.2-1.9,0.2c-2.4,0-4.3-1.2-5.8-3.7s-2.1-5.8-2.1-10c0-2.3,0.2-4.3,0.7-6c0.5-1.7,1.1-3.2,2-4.4
		c0.8-1.1,1.7-2,2.8-2.7s2.3-1,3.5-1c1.1,0,2,0.1,2.7,0.4c0.7,0.3,1.5,0.7,2.5,1.3v-11.2h6.6V144.2z M931.2,136.9V124
		c-0.3-0.2-0.8-0.4-1.3-0.5c-0.5-0.1-1-0.2-1.4-0.2c-1.6,0-2.8,0.7-3.6,2.1s-1.2,3.3-1.2,5.8c0,2.6,0.3,4.5,1,5.6s1.7,1.7,3.1,1.7
		c0.6,0,1.2-0.1,1.8-0.4C930.1,137.8,930.7,137.4,931.2,136.9z"/>
	<path d="M954.6,141.4c-0.5,0.5-0.9,0.9-1.2,1.3s-0.8,0.8-1.4,1.1c-0.6,0.4-1.2,0.6-1.7,0.8c-0.6,0.2-1.3,0.3-2.4,0.3
		c-1.9,0-3.4-0.8-4.7-2.3s-1.9-3.5-1.9-5.9c0-2,0.3-3.5,0.9-4.7c0.6-1.2,1.5-2.2,2.7-2.9c1.2-0.7,2.6-1.2,4.3-1.5
		c1.7-0.3,3.5-0.5,5.4-0.7v-0.1c0-1.5-0.4-2.5-1.3-3s-2.2-0.8-3.9-0.8c-0.8,0-1.7,0.2-2.7,0.5c-1,0.4-2.1,0.8-3.1,1.3H943v-6.4
		c0.7-0.2,1.7-0.5,3.2-0.8s2.9-0.5,4.4-0.5c3.7,0,6.3,0.8,8,2.3s2.5,3.8,2.5,6.9v17.9h-6.6V141.4z M954.6,137.3v-5.5
		c-1.1,0.1-2,0.3-2.7,0.4s-1.4,0.3-2,0.6c-0.6,0.3-1,0.6-1.4,1.1c-0.3,0.5-0.5,1.2-0.5,2c0,1.2,0.3,2.1,0.8,2.5
		c0.5,0.5,1.3,0.7,2.4,0.7c0.6,0,1.2-0.2,1.8-0.5S954.1,137.9,954.6,137.3z"/>
</g>
</svg>
